<svg xmlns="http://www.w3.org/2000/svg" viewBox="0 0 49.51 45.42"><defs><style>.cls-1{fill:#558dca;}</style></defs><title>airplane</title><g id="Layer_2" data-name="Layer 2"><g id="Layer_2-2" data-name="Layer 2"><path class="cls-1" d="M42.91,18H25.29a.52.52,0,0,1-.47-.29L16.55.29A.52.52,0,0,0,16.08,0H14.76a.51.51,0,0,0-.5.61l3.33,16.77a.51.51,0,0,1-.5.61H4.49A.53.53,0,0,1,4,17.65L2,12a.53.53,0,0,0-.49-.34h-1a.5.5,0,0,0-.5.58L1.54,22.64v.14L0,33.22a.51.51,0,0,0,.5.58H1.59a.53.53,0,0,0,.49-.34l2-5.69a.53.53,0,0,1,.49-.34h12.6a.51.51,0,0,1,.5.61L14.31,44.81a.51.51,0,0,0,.5.61h1.31a.52.52,0,0,0,.47-.29l8.28-17.42a.52.52,0,0,1,.47-.29H43c3.62,0,6.55-2.12,6.55-4.73S46.53,18,42.91,18Z"/></g></g></svg>