<svg xmlns="http://www.w3.org/2000/svg" viewBox="0 0 636.2 621.72"><defs><style>.a{fill:#134ecc;}</style></defs><title>Logomark</title><path class="a" d="M6443.4,1272c-6.28,3.65-30.37,35.17-24.75,31.07,55.94-25.64,119.29-57.07,102.5-57.07C6475,1254.65,6473.7,1256.44,6443.4,1272Z" transform="translate(-6153.14 -1143.72)"/><path class="a" d="M6280.29,1375.93c-185.78,143.58-166,316.27,46.37,330.35-150-18.06-151.92-182.69-60.68-276.15C6269.55,1426.48,6285.1,1372.22,6280.29,1375.93Z" transform="translate(-6153.14 -1143.72)"/><path class="a" d="M6638,1167.59c-25.44-13.84-34.67-29.9-63.76-21.6-15.74,4.49,57.87,54.23,47.83,57.09-13.43,3.83-56,25.46-71.42,10s-22.13-21.29-41.58-16.93c-8,1.79,55.75,43.07,127.35,24.75,105.87-27.09,164.11-33,151.14-56.18C6778,1147.73,6698.91,1200.74,6638,1167.59Z" transform="translate(-6153.14 -1143.72)"/><path class="a" d="M6434,1230.38c-33.71,28.74-184.21,259.32,84.75,323.3,0,14.33-111.54,8.12-50.12,200.25-34.79.18-91.47-278.2-170.43-100.21C6261.8,1635.63,6277.42,1295.25,6434,1230.38Z" transform="translate(-6153.14 -1143.72)"/><circle class="a" cx="308.06" cy="279.33" r="63.26"/><circle class="a" cx="482.84" cy="345.98" r="51.58"/><path class="a" d="M6537.9,1557.76c79,95,36.07,147.45-31.14,199.37,5.35,8.92,103.77-93.73,151.62,3.52,1.79,33.34-10.7-114.32,94.67-237.39C6684.71,1555.77,6641.88,1570,6537.9,1557.76Z" transform="translate(-6153.14 -1143.72)"/></svg>