<svg xmlns="http://www.w3.org/2000/svg" viewBox="0 0 1667.11 621.72"><defs><style>.cls-1,.cls-2{fill:#134ecc;}.cls-2{font-size:168.85px;font-family:MuseoSans-700, Museo Sans;}.cls-3{letter-spacing:-0.01em;}.cls-4{letter-spacing:0em;}.cls-5{letter-spacing:0em;}</style></defs><title>Asset 1</title><g id="Layer_2" data-name="Layer 2"><g id="Layer_1-2" data-name="Layer 1"><path class="cls-1" d="M290.26,128.25c-6.28,3.65-30.37,35.18-24.75,31.07,55.95-25.63,119.29-57.06,102.5-57.06C321.9,110.94,320.56,112.72,290.26,128.25Z"/><path class="cls-1" d="M127.15,232.21c-185.77,143.58-166,316.27,46.37,330.35C23.53,544.5,21.6,379.87,112.84,286.42,116.41,282.76,132,228.5,127.15,232.21Z"/><path class="cls-1" d="M484.85,23.88C459.41,10,450.18-6,421.09,2.28,405.35,6.77,479,56.51,468.92,59.37c-13.43,3.83-56,25.46-71.42,10s-22.14-21.29-41.58-16.93c-8,1.79,55.74,43.07,127.35,24.75C589.14,50.1,647.38,44.22,634.4,21,624.9,4,545.78,57,484.85,23.88Z"/><path class="cls-1" d="M280.83,86.66C247.13,115.4,96.62,346,365.59,410c0,14.33-111.54,8.12-50.12,200.24C280.67,610.38,224,332,145,510,108.66,491.91,124.28,151.53,280.83,86.66Z"/><circle class="cls-1" cx="308.06" cy="279.33" r="63.26"/><circle class="cls-1" cx="482.84" cy="345.98" r="51.58"/><path class="cls-1" d="M384.76,414.05c79,95,36.07,147.45-31.14,199.37,5.36,8.92,103.78-93.73,151.63,3.52,1.78,33.34-10.71-114.32,94.66-237.39C531.57,412.06,488.74,426.33,384.76,414.05Z"/><text class="cls-2" transform="translate(740.51 144.42)"><tspan class="cls-3">A</tspan><tspan x="106.54" y="0">vi</tspan><tspan class="cls-4" x="239.25" y="0">a</tspan><tspan class="cls-5" x="328.91" y="0">tion</tspan></text><text class="cls-2" transform="translate(729.34 359.62)">Community</text><text class="cls-2" transform="translate(732.96 574.82)">Found<tspan class="cls-4" x="504.34" y="0">a</tspan><tspan x="594" y="0">tion</tspan></text></g></g></svg>