<svg xmlns="http://www.w3.org/2000/svg" viewBox="0 0 1653.3 621.72"><defs><style>.a{fill:#134ecc;}</style></defs><title>Logo</title><path class="a" d="M6443.4,1272c-6.28,3.65-30.37,35.17-24.75,31.07,55.94-25.64,119.29-57.07,102.5-57.07C6475,1254.65,6473.7,1256.44,6443.4,1272Z" transform="translate(-6153.14 -1143.72)"/><path class="a" d="M6280.29,1375.93c-185.78,143.58-166,316.27,46.37,330.35-150-18.06-151.92-182.69-60.68-276.15C6269.55,1426.48,6285.1,1372.22,6280.29,1375.93Z" transform="translate(-6153.14 -1143.72)"/><path class="a" d="M6638,1167.59c-25.44-13.84-34.67-29.9-63.76-21.6-15.74,4.49,57.87,54.23,47.83,57.09-13.43,3.83-56,25.46-71.42,10s-22.13-21.29-41.58-16.93c-8,1.79,55.75,43.07,127.35,24.75,105.87-27.09,164.11-33,151.14-56.18C6778,1147.73,6698.91,1200.74,6638,1167.59Z" transform="translate(-6153.14 -1143.72)"/><path class="a" d="M6434,1230.38c-33.71,28.74-184.21,259.32,84.75,323.3,0,14.33-111.54,8.12-50.12,200.25-34.79.18-91.47-278.2-170.43-100.21C6261.8,1635.63,6277.42,1295.25,6434,1230.38Z" transform="translate(-6153.14 -1143.72)"/><circle class="a" cx="308.06" cy="279.33" r="63.26"/><circle class="a" cx="482.84" cy="345.98" r="51.58"/><path class="a" d="M6537.9,1557.76c79,95,36.07,147.45-31.14,199.37,5.35,8.92,103.77-93.73,151.62,3.52,1.79,33.34-10.7-114.32,94.67-237.39C6684.71,1555.77,6641.88,1570,6537.9,1557.76Z" transform="translate(-6153.14 -1143.72)"/><path class="a" d="M6971.3,1265.3H6931l-9.71,29.46h-21.53l40.47-114.95h21.86l40.47,114.95H6981Zm-20.24-65.57s-2.59,11.33-4.86,17.81L6936,1248.3h30.11l-10.2-30.76c-2.1-6.48-4.53-17.81-4.53-17.81h-0.32Z" transform="translate(-6153.14 -1143.72)"/><path class="a" d="M7003.74,1212.2h21.69l17.16,51.16c1.62,4.86,2.75,12.47,2.91,12.47h0.32c0.16,0,1.29-7.61,2.91-12.47l17.16-51.16h21.69L7058,1294.77h-24.28Z" transform="translate(-6153.14 -1143.72)"/><path class="a" d="M7106.09,1179.82h20.4v18.29h-20.4v-18.29Zm0,32.38h20.56v82.57h-20.56V1212.2Z" transform="translate(-6153.14 -1143.72)"/><path class="a" d="M7195.25,1243H7198v-1.13c0-10.85-6.8-14.57-15.87-14.57-11.82,0-22.67,7.93-22.67,7.93l-7.77-14.73a55.7,55.7,0,0,1,32.38-10.2c21.69,0,34.32,12,34.32,32.87v51.64h-18.94V1288a52.32,52.32,0,0,1,.32-5.83h-0.32c0.16,0-6.31,14.57-25.09,14.57-14.73,0-28-9.23-28-25.74C7146.36,1244.74,7181.81,1243,7195.25,1243Zm-15.7,37.72c10.85,0,18.62-11.66,18.62-21.69V1257h-3.56c-10.52,0-27.52,1.46-27.52,13C7167.08,1275.5,7171.13,1280.68,7179.55,1280.68Z" transform="translate(-6153.14 -1143.72)"/><path class="a" d="M7243.85,1229.85h-10.69v-16.35h11.17v-23.8h20.08v23.8h18.78v16.35h-18.78v32.05c0,13.6,10.69,15.54,16.35,15.54a18.93,18.93,0,0,0,3.72-.32v18a35.53,35.53,0,0,1-6.31.49c-11.49,0-34.32-3.4-34.32-31.08v-34.65Z" transform="translate(-6153.14 -1143.72)"/><path class="a" d="M7303.33,1179.82h20.4v18.29h-20.4v-18.29Zm0,32.38h20.56v82.57h-20.56V1212.2Z" transform="translate(-6153.14 -1143.72)"/><path class="a" d="M7385.73,1210.26c25.26,0,45.49,18,45.49,43.23,0,25.42-20.24,43.23-45.33,43.23-25.26,0-45.49-17.81-45.49-43.23C7340.4,1228.23,7360.64,1210.26,7385.73,1210.26Zm0.16,69c13.28,0,24.45-10.36,24.45-25.74,0-15.22-11.17-25.74-24.45-25.74-13.44,0-24.61,10.52-24.61,25.74C7361.29,1268.86,7372.46,1279.22,7385.89,1279.22Z" transform="translate(-6153.14 -1143.72)"/><path class="a" d="M7447.74,1212.2h19.75v9.55a51.1,51.1,0,0,1-.32,5.67h0.32c3.56-7,12.63-17.16,29.3-17.16,18.29,0,28.66,9.55,28.66,31.41v53.1h-20.4v-48.89c0-10-2.59-16.84-13.11-16.84-11,0-19.1,7-22.18,16.84a34.81,34.81,0,0,0-1.46,11v37.88h-20.56V1212.2Z" transform="translate(-6153.14 -1143.72)"/><path class="a" d="M6961.31,1384.23c28,0,42.42,15.7,42.42,15.7l-10,15.54s-13.11-12.14-31.41-12.14c-24.28,0-38.53,18.13-38.53,39.5,0,21.86,14.73,41.12,38.69,41.12,19.91,0,33.35-14.57,33.35-14.57l11,15.06s-15.87,18.62-45.17,18.62c-35.13,0-59.42-26.06-59.42-59.9C6902.22,1409.81,6927.47,1384.23,6961.31,1384.23Z" transform="translate(-6153.14 -1143.72)"/><path class="a" d="M7064,1416.61c25.26,0,45.49,18,45.49,43.23,0,25.42-20.24,43.23-45.33,43.23-25.26,0-45.49-17.81-45.49-43.23C7018.68,1434.58,7038.91,1416.61,7064,1416.61Zm0.16,69c13.28,0,24.45-10.36,24.45-25.74,0-15.22-11.17-25.74-24.45-25.74-13.44,0-24.61,10.52-24.61,25.74C7039.56,1475.21,7050.73,1485.57,7064.17,1485.57Z" transform="translate(-6153.14 -1143.72)"/><path class="a" d="M7127,1418.55h19.75v9.55a51.1,51.1,0,0,1-.32,5.67h0.32c4-8.09,13.92-17.16,26.88-17.16,12.63,0,20.72,5.83,24.12,17h0.32a32.29,32.29,0,0,1,28.17-17c17.16,0,27,9.71,27,31.41v53.1h-20.56V1451.9c0-9.39-1.78-16.51-11.33-16.51-10.52,0-17.48,8.42-19.91,18.78a44.46,44.46,0,0,0-1,10.69v36.26H7180V1451.9c0-8.9-1.46-16.51-11.17-16.51-10.68,0-17.65,8.42-20.24,18.94a43.1,43.1,0,0,0-1,10.52v36.26H7127v-82.57Z" transform="translate(-6153.14 -1143.72)"/><path class="a" d="M7274.83,1418.55h19.75v9.55a51.1,51.1,0,0,1-.32,5.67h0.32c4-8.09,13.92-17.16,26.88-17.16,12.63,0,20.72,5.83,24.12,17h0.32a32.29,32.29,0,0,1,28.17-17c17.16,0,27,9.71,27,31.41v53.1h-20.56V1451.9c0-9.39-1.78-16.51-11.33-16.51-10.52,0-17.48,8.42-19.91,18.78a44.46,44.46,0,0,0-1,10.69v36.26h-20.56V1451.9c0-8.9-1.46-16.51-11.17-16.51-10.68,0-17.65,8.42-20.24,18.94a43.1,43.1,0,0,0-1,10.52v36.26h-20.56v-82.57Z" transform="translate(-6153.14 -1143.72)"/><path class="a" d="M7423.51,1418.55h20.56v48.89c0,10,2.59,16.84,12.79,16.84,14.89,0,23.15-13.11,23.15-27.85v-37.88h20.56v82.57h-19.75v-9.39a52.45,52.45,0,0,1,.32-5.83h-0.32c-4,8.58-14.57,17.16-28.66,17.16-17.65,0-28.66-8.9-28.66-31.41v-53.1Z" transform="translate(-6153.14 -1143.72)"/><path class="a" d="M7526.24,1418.55H7546v9.55a51.1,51.1,0,0,1-.32,5.67H7546c3.56-7,12.63-17.16,29.3-17.16,18.29,0,28.66,9.55,28.66,31.41v53.1h-20.4v-48.89c0-10-2.59-16.84-13.11-16.84-11,0-19.1,7-22.18,16.84a34.81,34.81,0,0,0-1.46,11v37.88h-20.56v-82.57Z" transform="translate(-6153.14 -1143.72)"/><path class="a" d="M7625.48,1386.17h20.4v18.29h-20.4v-18.29Zm0,32.38H7646v82.57h-20.56v-82.57Z" transform="translate(-6153.14 -1143.72)"/><path class="a" d="M7673.27,1436.2h-10.69v-16.35h11.17V1396h20.08v23.8h18.78v16.35h-18.78v32.05c0,13.6,10.69,15.54,16.35,15.54a18.93,18.93,0,0,0,3.72-.32v18a35.53,35.53,0,0,1-6.31.49c-11.49,0-34.32-3.4-34.32-31.08V1436.2Z" transform="translate(-6153.14 -1143.72)"/><path class="a" d="M7729.37,1514.39s4.53,3.4,9.23,3.4c5.67,0,11.17-3.4,14.25-10.68l3.08-7.29-34.81-81.27h23.15l17.32,47.6a101.72,101.72,0,0,1,3.08,11.17H7765s1.3-6.48,2.75-10.85l16.19-47.92h22.5l-36.91,95c-5.83,15.06-17.32,21.53-29.79,21.53a31.75,31.75,0,0,1-17.16-5.34Z" transform="translate(-6153.14 -1143.72)"/><path class="a" d="M6903.09,1593.65H6963v10h-48.73v42.74H6956v10h-41.77v51h-11.17V1593.65Z" transform="translate(-6153.14 -1143.72)"/><path class="a" d="M7016.14,1624.09c23.8,0,43.06,18.13,43.06,42.25,0,24.61-19.27,43.06-43.06,43.06s-43.06-18.46-43.06-43.06C6973.08,1642.22,6992.34,1624.09,7016.14,1624.09Zm0,75.44c17.48,0,31.73-14.25,31.73-33.19,0-18.46-14.25-32.22-31.73-32.22s-31.73,13.76-31.73,32.22C6984.41,1685.29,6998.66,1699.53,7016.14,1699.53Z" transform="translate(-6153.14 -1143.72)"/><path class="a" d="M7077.64,1626h11v48.89c0,12.79,1.94,24.12,17.65,24.12,18.62,0,30.11-16.35,30.11-34v-39h11v81.43h-10.68v-12.14c0-3.56.32-6.48,0.32-6.48h-0.32a34.81,34.81,0,0,1-31.89,20.56c-19.1,0-27.2-10.36-27.2-31.57V1626Z" transform="translate(-6153.14 -1143.72)"/><path class="a" d="M7176,1626h10.85v12.14c0,3.56-.32,6.48-0.32,6.48h0.32c2.91-7.45,13.28-20.56,32.54-20.56,20.08,0,27.2,11.49,27.2,31.57v51.81h-11v-48.89c0-12.79-1.94-24.12-17.65-24.12a31,31,0,0,0-29.63,23,40.29,40.29,0,0,0-1.29,11v39h-11V1626Z" transform="translate(-6153.14 -1143.72)"/><path class="a" d="M7302.22,1624.09c19.75,0,26.55,15.38,26.55,15.38h0.32a58.67,58.67,0,0,1-.32-6.15v-39.66h11v113.81h-10.68v-8.58a45.63,45.63,0,0,1,.32-5.83h-0.32s-6.64,16.35-28,16.35c-21.86,0-35.46-17.48-35.46-42.74C7265.63,1640.93,7280.85,1624.09,7302.22,1624.09Zm0.49,75.44c13.6,0,26.39-9.71,26.39-32.87,0-16.51-8.42-32.7-25.9-32.7-14.41,0-26.23,12.14-26.23,32.7C7277,1686.74,7287.48,1699.53,7302.7,1699.53Z" transform="translate(-6153.14 -1143.72)"/><path class="a" d="M7410.55,1657.12h4.53V1655c0-15.7-8.58-21-20.24-21a39.65,39.65,0,0,0-23,7.77l-5.18-8.42s10.69-9.23,29-9.23c19.59,0,30.44,10.85,30.44,31.25v52.13h-10.52v-8.9a64.5,64.5,0,0,1,.32-6.8h-0.32s-6.8,17.65-27.2,17.65c-13.6,0-27.68-7.93-27.68-24.12C7360.69,1657.76,7396.47,1657.12,7410.55,1657.12Zm-20.4,42.9c15.54,0,24.93-16.19,24.93-30.27v-3.56h-4.7c-12.79,0-38.37.49-38.37,18.46C7372,1692.25,7378,1700,7390.15,1700Z" transform="translate(-6153.14 -1143.72)"/><path class="a" d="M7456.11,1636.23h-10.69V1627h10.85v-23.48h10.85V1627h20.4v9.23h-20.4v40.47c0,19.1,12.14,21.53,18.29,21.53a18.93,18.93,0,0,0,3.72-.32v9.88a29,29,0,0,1-4.69.32c-9.39,0-28.33-3.08-28.33-30.27v-41.61Z" transform="translate(-6153.14 -1143.72)"/><path class="a" d="M7508.94,1593.65h11.5v13.76h-11.5v-13.76Zm0.32,32.38h11v81.43h-11V1626Z" transform="translate(-6153.14 -1143.72)"/><path class="a" d="M7583.9,1624.09c23.8,0,43.06,18.13,43.06,42.25,0,24.61-19.27,43.06-43.06,43.06s-43.06-18.46-43.06-43.06C7540.83,1642.22,7560.1,1624.09,7583.9,1624.09Zm0,75.44c17.48,0,31.73-14.25,31.73-33.19,0-18.46-14.25-32.22-31.73-32.22s-31.73,13.76-31.73,32.22C7552.17,1685.29,7566.41,1699.53,7583.9,1699.53Z" transform="translate(-6153.14 -1143.72)"/><path class="a" d="M7647.52,1626h10.85v12.14c0,3.56-.32,6.48-0.32,6.48h0.32c2.91-7.45,13.28-20.56,32.54-20.56,20.08,0,27.2,11.49,27.2,31.57v51.81h-11v-48.89c0-12.79-1.94-24.12-17.65-24.12a31,31,0,0,0-29.63,23,40.29,40.29,0,0,0-1.29,11v39h-11V1626Z" transform="translate(-6153.14 -1143.72)"/></svg>