<svg xmlns="http://www.w3.org/2000/svg" viewBox="0 0 2204.57 1288.02"><defs><style>.cls-1{fill:none;stroke:#fff;stroke-linecap:round;stroke-linejoin:round;stroke-width:4px;}</style></defs><title>map-1</title><g id="Layer_2" data-name="Layer 2"><g id="Layer_1-2" data-name="Layer 1"><path id="WY" class="cls-1" d="M810.37,384.13q-1.58,50.82-3.42,101.63c-93-3.36-185.93-9.95-278.57-19h0c6.33-67.2,13.41-134.33,20.14-201.5,55.32,5.55,193-9.22,238.3,14.39,44.07,23,21.69,64.07,23.2,116.1C810,394.78,810.7,374.86,810.37,384.13Z"/><path id="WV" class="cls-1" d="M1789.62,477.49l4.5,26c7.7-6.87,85.23-60.33,66.35-9.69-20.5-10.72-53.1,28-66,45.61-20.35,27.84-10.94,73.85-60.42,74.6-20.7.31-43.82-9.26-52-32.41-8.7-24.53,15.93-38,20.88-46.34,1.49-2.5,45.7-99.25,37.05-96.81,7.83,44.55-4.14,49,49.66,39C1790.9,485,1775.4,480.13,1789.62,477.49Z"/><path id="WI" class="cls-1" d="M1307.8,183.17c2.52-.23,5.12-1.7,7.57-4.61C1312.11,178.44,1310.63,180.74,1307.8,183.17Zm6.65-7.77a2.11,2.11,0,0,0,2.42-2.23C1311,174.75,1314.32,175.84,1314.45,175.4Zm-13.72-1Zm145.64,93.71c-7.13-4.77-19.21,16.08-23.89,12.65.74.54,7.18-42.12,2-50.7-10.63-17.7-99-42.34-121.9-37.86,11.4-24.72-36.48-10.11-43.36-4.69-16.57,13.07-18.26,55.88-17,69.62,3,32,101,114.94,89.49,139.14,36.37,0,74.06-6.26,110.24-9.73C1434.88,354.34,1447.86,274.78,1446.37,268.11Zm-136.65-91.91c-.28-.95,1.9-1.75-1-2.69C1307.6,175.32,1309.29,174.7,1309.72,176.21Zm11.3-6.8Zm140.11,69.65C1458.1,234.63,1454.6,238.08,1461.13,239.06Zm-4,5.11c-6.84-6.12-16.78,21.52-10.78,21.69C1451.78,266,1457.7,243.65,1457.17,244.17Z"/><path id="WA" class="cls-1" d="M144.65,26.33Zm-2.38,4.8c.38-2.29.3-3.31-.27-7.49C137.42,27.18,140,28.12,142.27,31.14Zm-3.23-13c-2,8.24,6.45-3.92,5.81,2.88C145.07,18.67,141,17.48,139,18.11Zm2.85,31.13C145.52,49.84,143.18,47.5,141.89,49.24ZM142.5,14c.33,1.13.83.71,1.31.23C143.16,13.62,142.63,13.48,142.5,14Zm-4.42,9.15c1.23-.4,1.78,1.4,2.81-.62C138.7,21.53,137.72,23.22,138.08,23.11Zm12.3,10.53q-13,13.65,2.58,24-1.75-14.56-4.39-4.51C150.77,45.86,149.9,32.35,150.38,33.64Zm1.88-14.92c-2.23-1.43,1.17.33,0,0C152,18.57,152.71,18.85,152.26,18.72Zm-1.54-.19c0-2.64-1.14-.19,1.5,3.12C152.19,20.44,150.72,19.35,150.73,18.53Zm-1.85,3.73Zm-.19,1.46c0-.1-2.14-1.3-1.11,2.31C149.88,25.84,148.3,24.87,148.69,23.72Zm-3.38,60.43C143.92,82.61,149,81,145.31,84.15ZM143,72.35C150,75.42,147,61.83,143,72.35Zm-8.8,19.37c-.53,1.35-3,.92-.46,2.84C136.45,93,134,92.37,134.24,91.72Zm-5-5.42c.32-.17-1.67-.6-1.19,4.84C130,89.12,128.15,88.31,129.2,86.3ZM80.65,115.9c.2.06.51,2.18,1.08,2.23C82,112.86,80.9,116,80.65,115.9Zm52-98.21Zm4.77-1.38c-.16.07.86,1.34,1.42-.85C136.69,15,137.33,16.34,137.43,16.3Zm-3.81,2.88C130.47,22.75,140.18,27.63,133.62,19.18ZM349.45,40.32C282.18,29.79,215.62,14.94,148.15,5.61c3,4.47,9,16.36,9.11,21.41-8.74-7.28.19,8-9.72,1.19,1,3.92,7.07,23.19,8.23,24a24.08,24.08,0,0,1-1.21-9.26C179.33,62.65,126,97.19,126,96.83c-5.75-4.37,4-8.86-6.19-3.81,1.44-.68,10.67-9.55,12.92-12.53-1.24,12.84.9,5.67,7.23,8.26,2.05-11.32-1-21.57,2.34-15.61-3.7-13.4,13.26-4.17,2.88-17.68,3.69,10.19-26.09,23.94-23.1,26.9-3.22-3.19,12.9-19.69,13.14-22.94,1.29-.07,3.24-.34-.42,7.11q16-6.34,6.69-21.68C130.1,51.92,95.47,26.68,74.54,18c5.61,16.35,8.68,57.41,4.11,74.77Q85.12,85.2,91.88,94q-9,10.06-11.15-.08-2.68,12.28,10,14.07c-8.19-2.31-9.22,5.75-6,13-7.09-.45-5.06-10.56-4.11-13.49C38.41,173.72,303.93,182.94,337,188c-17.19-47.15,52.52-141.5-14.07-151.82C331.77,37.52,340.6,39,349.45,40.32ZM140.73,2Zm-8.84,14.84ZM150,27.14c1.27-1.06,4.41,1.2.62-2.69C149.87,24.86,150.38,26.82,150,27.14Z"/><path id="VT" class="cls-1" d="M1974.51,163c-8.71,0,1.24,116.06,53.4,105-29.49-19.37,14.17-96.35,6.91-120.81-19.07,5.07-42.94,10.17-60.93,14.69Q1987.63,159.06,1974.51,163Z"/><path id="VA" class="cls-1" d="M1964.63,607.11Zm-3.31-34.29c.17-.37,1.9-.43,1.16-3.92A14.22,14.22,0,0,1,1961.33,572.82Zm3.81-10.84Zm4.92-32.67c-11.85,2.05-23.67,36.55-12.46,49.31q1.05-8.93,2.35-2.11C1958.46,557.28,1971.55,542.66,1970.05,529.31Zm5.89-2.19c-1.81,3.82-3,7.89-3.81,9.69C1975.35,534.12,1975.36,530.54,1975.94,527.11ZM1961,595.34c.46,1.49-51.54-11.69-59.35-14.76,2.85-.1,44.07,4,43.57,5.73-5.36-4.18-24.17-16.18-25.62-20.34,22.56,16.75,12.35-2.4,23.29,6.54-.06-12.1-25.88-33.1-44.24-35.29,16.13-2.14,26.07,17.89,39.09,19.45-8.46-18.62-21.41-26.34-49.28-27,5.91-47-21.38-32.47-50.43-47.36-6.61,36.72-36,46.22-44,58-4.68,6.93-81.91,130.13-85.1,65.25-19.85,23.11-38.9,39.82-62.43,58.5,41.29-5.82,317.67-63.32,321.54-56.58C1974.87,620.87,1958.33,591.32,1961,595.34Z"/><path id="UT" class="cls-1" d="M533.46,416.1q-2.67,25.32-5.07,50.66h0c104.49,8,75.49,44.75,68.42,139.67-3.28,44.09,3.71,53.1-28.54,70.15-17.13,9.06-118.33-6.47-136.87-13.56-34.13-13-30.93,2.28-45.68-29-13.16-27.92,17.35-120.63,21-153.23,4.57-40.43-3.53-64.77,32.11-77,16.91-5.79,99.76,20.4,87.58,19.11Q511.81,415.27,533.46,416.1Z"/><path id="TX" class="cls-1" d="M1089.7,1224.94l8.73,30.91a462.77,462.77,0,0,1-10.61-57.16C1092.39,1183.57,1091.49,1231.25,1089.7,1224.94Zm11.53-59.31c-9.76,17-9.95,4.45-14.37,32A155.83,155.83,0,0,0,1101.23,1165.62Zm9.35-15.22c-4.38,3.72-5.48,8.79-7.84,14.61C1105.35,1159.87,1110.33,1155.68,1110.58,1150.4Zm20-14.34c-4.76,5-18.73,8.72-19.06,17.37C1116.39,1146.92,1129.18,1143.42,1130.56,1136.07Zm5.89-4.46c-1.48,1.33-3.14,2.23-4.19,3.84C1137.54,1132.56,1136.66,1130.76,1136.44,1131.6Zm63.84-47.85q-7.51-6.13-12.45,13.76Q1214.94,1086.21,1200.28,1083.75Zm53.86-90.64c-16.1-46.7-19.92-120.67-62-137.7-34.56-14-75,5.43-103,2.74-30.19-2.9-67.14-15.16-95.8-33.33-36.24-23-7.26-23.7-23.5-71-13.51-39.36-51.13-55.27-98.63-35.89q-52.37-15.88-32.91,42.12l-1.59,42.14c-.83,24.68,11,104.55-3.47,126.39-26.21,39.57-105.61,18.19-159,14.91,1.12,27.57,57.92,57.82,72,76.87,18.59,25.21,11.87,58.42,48.53,71.88,55.67,20.44,69.55-59.79,132.13-2.72,38.5,35.12,43.65,109.69,78.09,142.85,11,10.62,100.11,38.42,94.76,24.44-1.64,2.1-24.69-59.46-30.33-62.39q10.89.59-.19-8.8c5.92,8.61,19.85,2.27,10.91,9,15.56-.94,11.68-28.08.28-30.1,7.78.81,24.19,5.24,21.95-13.26q-3.94,10.75-8.3,2.53c1.35-4.36,14.36-15.18,12.38-3,2.81-1.18,9.06-34.43,22.36-18-3.57-.76-8.94-4.72-9.82-13.53q14,1,7.37,7.57c7.61-3.62,5.61-4,1.93-9.65,8.59,19.16,29,4,28.11,4.46,2.24-1.18,61.61-31.08,32.39-55.85,15.55,7.54,27.08-2.8,13.3,17.11,33.41-24.9,32.64-12.71,46-50.44C1250.11,1026.67,1254.17,993.07,1254.14,993.11Z"/><path id="TN" class="cls-1" d="M1646.56,664c27.51-3.87,54.81-13.29,82.83-13.38-10,32.21-59.39,58.3-91.12,79.57-23,15.41-12.11,14.6-46.07,25.75-61.85,20.3-149.73,17.82-213.71,23.06,13.31-18.15,28.75-65.75,24.25-80,27.12-3.52,250.25-26.29,252.64-35.69C1655,664.89,1635.8,668.27,1646.56,664Z"/><path id="SD" class="cls-1" d="M1095.77,237.05c-1.47,44.23.27,117.07,8.26,172.17-31.06-.82-70.61-21.64-105.72-23.47-62.19-3.24-125.5.54-188-1.63,1.08-30.72-3.61-81.3,4.66-110.92,12.71-45.53,5.18-36.43,61.26-35.19q109.73,2.42,219.49-1c-.32,9.7-36,1.27-40.75,2.74A281.78,281.78,0,0,1,1095.77,237.05Z"/><path id="SC" class="cls-1" d="M1858.85,813.6c-.3,1.28-1.35,1.64-.73,3.34C1858.72,816,1858.63,814.51,1858.85,813.6Zm24.56-46.4c-27.76-36.3-112.3-52.76-157.57-42.56-54,12.17-43.06,20.33-23.36,51.59,11.82,18.76,79.21,98.39,99.21,102.13q4.24-21.25,2.31-4.38,6.33-12.58-5.31-21.76c10.26,8.11,14,14,8,2.54,1.43,1.91,9.67,24.94,11.42.84-5.84,6.92-.71-4.6-11.46-2.61,4-4.35,40-11.73,27.57-20.8,9.85-9.27,21-13.69,26.83-22,6.46-9.28-11.94-16,2.89-5.57q-.49-24,19.45-37.44Z"/><path id="RI" class="cls-1" d="M2082.06,335.19c-1.35-.21-1.82-3.28-1.77,1.73C2081,336.95,2084,335.48,2082.06,335.19Zm3.15-19.41c.87-2-1.38.43-.58,4.07C2085.83,318.41,2084.59,317.23,2085.22,315.78Zm5,.58C2087.43,295.12,2082.68,326.35,2090.25,316.36Zm-3.27-7.88q-5.19-20.89-22.27-10.85a87,87,0,0,0,4.66,33.65C2082.45,321.07,2079.35,295.21,2087,308.48Z"/><path id="PA" class="cls-1" d="M1970,414.34c-49.1-26.5,11.89-70.73-62.79-82.84-26.67-4.33-172,36.89-163.3,27.57-28.2,24.09-9.54,115.64,11,124.92,17.48,7.89,79.37-13.57,95.79-17.09C1881.81,460.23,1979.33,436.74,1970,414.34Z"/><path id="OR" class="cls-1" d="M106.87,136.92c15.32,2.9,7,25.06,17.19,33,4.89,3.8,61.75,9.11,59.36,9,35.13,2,113.24-17.45,143,5.55,36.11,27.92,7.18,29.37-4.17,65.1-12.1,38-14.37,90.38-21.22,136.9-58.79-8.89-116.75-22.37-175.47-31.64-12.63-2-85.6-3.58-96.53-19.41-13-18.76-.63-82.49,12.26-68.65q1.4-11-6.38-1.73,3.8-22.18,12.42-14.07a3.61,3.61,0,0,0-4.31.27C48.59,228,61.21,174.31,72,161.1c-1.48,9.39,7-27.29,6.15-32.86C83,135.93,113.16,133.82,106.87,136.92Z"/><path id="OK" class="cls-1" d="M1191.71,714.2c9,48.48,11.61,97.73,13,146.91-58.4-10.36-208.86,10.42-237.37-54.58-23.11-52.68,31.44-71.34-38.81-89.63-9.7-2.53-107.5,17.37-89.85-15.68,13.31-24.94,155.22-7.35,176.37-7.57q54.87-.56,109.71-2.5c60.92-2.11,57.6-12.09,70.81,42.68C1194.11,728,1192,720.06,1191.71,714.2Z"/><path id="OH" class="cls-1" d="M1735.16,440.74c11.51-2.31-5.7-61.49-7.15-69.38-38.19,20-59.33,46.69-94.41,42.63,16.07-8.33-54.65-20.15-69,19.72-2.84,7.88,15.47,108.85,16.63,110.13,8.06,8.84,50.91,11.11,63.08,11,35.06-.39,45.93-3.92,61.11-21.59C1726,509.28,1744.08,460.22,1735.16,440.74Z"/><path id="NV" class="cls-1" d="M377.94,698.82c-1.73,6.54-23.17.63-28.63,5-9.65,7.79-2.31,41.7-2.77,52-63-76-187.12-183.85-180.26-283.94,3.7-53.91,6-92.37,54.58-101,46.12-8.15,148.58,25.82,195.83,31.79C405.89,487.83,403.23,640.29,377.94,698.82Z"/><path id="NM" class="cls-1" d="M678.49,953.48c-17.2.84-72.08-18-74.88,20.14l-36.67-2.88h0v-.19c.53-47,7.36-93.48,11.69-140.17,2.27-24.52-4.43-136.68,12.26-151.85,14.56-13.23,238.43,5.78,250.54,21.49,13.7,17.78.41,188.09-5.45,211.7-12,48.25-4.91,31.36-55.17,37C767.83,950.13,662.25,937.93,678.49,953.48Z"/><path id="NY" class="cls-1" d="M1991.31,385.89c-3,2.53-5,4-4.23,8.53C1992.09,391.69,1992.33,389.29,1991.31,385.89Zm32.1-8c-2.22.52-7.77,3.11-11.19,5.08A49.75,49.75,0,0,0,2023.41,377.89Zm16.68-10.34c-5.8,3.87-10.82,9.72-17.8,11.15C2028.12,378,2037.56,370.35,2040.09,367.56Zm31.21-24.18c.82-.77-30.18,15.89-26.75,15.69,4.58-5.77,6.89-10.14,11.41-16-18.39,9.74-57.86,23.72-61.83,39.69-2.45,9.82,22-6.82,3.91,5.79,13.54-6.78,24-13.15,46.67-24.3C2040.42,368,2071.65,342.66,2071.3,343.38Zm-8-7.46c.64-.82,2-1.56,2.69-2.54C2062.85,334.1,2063.33,335.94,2063.34,335.92Zm-86.22-133.62Zm-105.71,22.83c.47-.54,2.42-1.26,3.12-2.31C1872.26,221.89,1872.44,224,1871.42,225.14Zm3.77-4C1883.89,215.76,1877.52,218.38,1875.19,221.14Zm-3.65,17.3Zm122.58,129-5.38-15.53c6.94,11.06,10.61,44.28,12.67,11.69,1.71-27.11,1.8-61.71-4.39-90.12-8.62-39.55-27.08-69.11-30.26-108.53,3.34-.87-131.91,51.06-97.94,72.88,2.51-4.54,4.44,1.2,9.22-.35-3.94,9.07-9.17,9-.54,17.22,4.59,36-84.09,25.46-100.4,40.84,3.48-3.28-19.27,73.46-19.95,69.7,49.41-9.52,126.33-41.24,174.26-31C1949.33,338.12,1992.17,366.86,1994.12,367.48Zm-218-58c2.57-2.13,4.48-4.66,0,0Z"/><path id="NJ" class="cls-1" d="M1994.19,447.66c-.85,2.08.59,4-2.62,3C1996.42,449.57,1997.22,449.41,1994.19,447.66Zm6.8-16.56c-1.16,4.14-2.22,8.48-3.07,12.65C1999.74,439.66,2001.13,433.8,2001,431.1Zm.28-8.07a57.64,57.64,0,0,0-4.11-28.87c.73,2.31-17.84,6.47-7.77-11.22,3,3.4-7-45.71-32.16-24.85-24.19,20,9.46,43,9.68,53.67.11,5.8-29.37,82,13.33,66.59-2,.74,15.88-22.35,4.5-19.22,12-12.28,5.66-16.67,14.45-44.09C2009.33,456.79,1999.27,413.91,2001.27,423Z"/><path id="NH" class="cls-1" d="M2088.1,233.67c20.84,14.49-63.89,35.13-60.16,34.33h0l0,0h0c-15.94-30.32-1.26-120.92,18.52-139C2057.8,163.92,2066.34,206.38,2088.1,233.67Z"/><path id="NE" class="cls-1" d="M1104,409.23c38.56,24.72,14,99.79,50.89,126.54-70.19,2.86-158.7,17.13-227.52,4.74-48.52-8.74-42.28,3.67-41.13-52.55-30.17-.52-64.92,11.53-79.9-15.74-4.2-7.64-.2-49,3.12-57.68,15.46-40.47,16-29.79,68.72-29.49C953,385.48,1039.1,407.77,1104,409.23Z"/><path id="ND" class="cls-1" d="M1095.77,237.05c-54.63,1.76-208.49,27.17-253,.77-45.95-27.25-23.82-90.39-21.68-152.18,50.64,1.72,208-25.06,247.74,12.68,22.2,21.08,34.22,147.58,4,137.85C1073.38,236.36,1096,225.88,1095.77,237.05Z"/><path id="NC" class="cls-1" d="M1908.71,760.48C1907.14,763.37,1907.83,762.46,1908.71,760.48Zm2.46-15.15a38.88,38.88,0,0,0-.47,4.23C1911.62,747.64,1913.39,744.33,1911.17,745.33Zm16-22.1c-4,2.52-7.57,6-9.22,10.38C1919.62,731.15,1927.5,722.88,1927.19,723.23Zm32.71-14.34c-1.32.15-2.95-.77-4.46-.5C1958,709.7,1961.18,708.75,1959.91,708.9Zm-8-1.12c-5.16,1.81-10.27,3.61-14.57,6.65C1941.92,711.86,1954.8,708.88,1951.87,707.78Zm18.49-15.3c-4.58,5.43-8.95,13.08-8.61,20C1962.87,706.69,1970.35,693.54,1970.36,692.48Zm5.12-8.69a23.32,23.32,0,0,1-2.19,4.8C1976.79,685.91,1975.45,683.91,1975.48,683.79Zm6.8-5.88C1970.84,691.39,1994.34,671.08,1982.28,677.91Zm13.26-21.37-5-13.46q10.75,17-2.3,31.91C1999.52,671.86,1996,658.71,1995.54,656.54Zm-11.73-18.22C1976.67,635.77,1985.11,645.31,1983.81,638.32Zm4.5,3.42c-1.38-1.4-19.14-34.54-21.33-34.06C1973.87,619.36,1985.3,635,1988.32,641.74Zm-25.1-32.1C1968.24,608.15,1966.28,608.16,1963.21,609.64Zm14.3,45.13c7.31,4.56-.24-17.5-3-18.64q-1.22,2.68,1.7,2.19c.51-1.2-7.22,16.26-10.42,14.61,5-.12-.78-12,1.7-13.8-14.11-9.89-28.34,30-32.71-12.45,7.37,13.71,24.07,12.1,12.19,3.53,5.14,2.79,14.6,1.48,17.07-1.76q-10.63-.82-7.5-6.46c36.7,24.5-18.75-15.21,19.61,8.41-27.48-48.28-359.12,28.09-344.91,120.24,65.62-10.36,116.26-31.75,174.89-16.79,23.86,6.09,50.7,24.09,74.46,28.87,22.57,4.54,30.43-28.3,28.94-4.59.29-1.14,20.34-40.52,12.72-46,6.51,1.91,53.25-18.14,42.17-23.41-1.3,5.31-4.4,8.34-4.69-1.42-2.86,6.18-14.5,19.38-26.9,1.3,4.88,2.84,25.84,1.25,21.1-4.46q-9.76,1.49,1.38-3c2.11-2.14-23.87-10.26-25.37-11.8,56.26,19.2-1.5-5,24.3-5.54C1951.22,665.81,1963,678.11,1977.51,654.77Z"/><path id="MT" class="cls-1" d="M816.44,236.32q-.73,23.56-1.5,47.13c-51.88-2.35-103.73-5.12-155.53-8.81-39.6-2.82-108.71-31.19-113.42,15.73a77.36,77.36,0,0,0-15.77-11.72c-5.3-1.38-43.8,8.6-58.42-1-8.5-5.57-30.2-47.37-33.35-55.77-.84-2.25-10.93,1.89-13.88-5.27-5.49-13.35,13.4-30.5,8.83-43.89-8.56-25.12-41.45-39.11-46.78-67.17-11.4-60,12.27-55.55,59.85-51.18,76.72,7,153,17.7,229.91,23.32,26.32,1.92,118.92-10.24,140,7.16,21.68,17.88.57,126.49-.07,153.31C816.43,234.42,817.21,207.61,816.44,236.32Z"/><path id="MS" class="cls-1" d="M1455.17,1018.33C1452,1022.56,1453,1021.78,1455.17,1018.33Zm-15.84,7.38Zm20.41-5.57a3,3,0,0,0,1.73-.35A4.58,4.58,0,0,0,1459.75,1020.13Zm20.67-2.23c1.42-.09,2.22.39,3.35-.35A15.08,15.08,0,0,0,1480.42,1017.9Zm3.54-9.3c-7.91-53.17,17.12-345-111.43-217-53.86,53.63,7.65,135.52-35.79,198.47q42.54-3.25,85-7.19c-.68,7.3,1.1,43.2,16.41,41,10.48-13.62-.23-7.14,25.37-14.26-1.19,0,25.16,7.94,17.49-17.67C1481.22,992.57,1483.1,1009.6,1484,1008.6Zm-8.88,9.07C1454.85,1015.34,1489,1018.56,1475.08,1017.67Zm-12,.76Z"/><path id="MO" class="cls-1" d="M1308.92,507.13c-14.6,22.12,46.67,78.87,54.68,89.15,8.73,11.19,45.69,65.58,46.94,71.95,27.07,12.35-28.54,59.26-39.67,60.31,20.65-55.76-141-16.25-179.16-14.34-.84-17.58-1.78-208.38-56-208.38,39.58,0,140-28.22,173.21,1.31C1299.36,521.61,1297.49,497,1308.92,507.13Z"/><path class="cls-1" d="M1346.62,119.28c-42-3.84-78.46-7.18-115.39-13.61,1.88.33-39.48-1.07-47.89-4.6-12.32-5.18-32.93-36.08-42.71-35,1.74,33.4-53,20.4-73.73,20.95,15.62,66.86,31.14,142.41,36.53,204.85,4.54,52.63-16.38,56.46,39.89,68.19,24.42,5.09,91.95.49,115.79-7.2,87.28-28.18-18.76-33.33-20.49-104.72-1.37-56.67,62.44-102.75,108-128.86Z"/><path class="cls-1" d="M1568.45,193c10.63,3.75,20-8.57,5.23-6.92C1574.83,189.91,1571.23,192,1568.45,193Zm-12.76-15.72c.29,1.16-2.57,2.16,1.3,4.61C1559.27,179.24,1556.26,179.59,1555.69,177.32Zm69,200.3c0,2-.76,3.41.23,5.23C1625.51,380.91,1624.71,379.58,1624.72,377.63ZM1551.35,171C1561.33,185,1555,162.92,1551.35,171Zm-63,33.67c21.15,3.28,57.61-5.36,79.34-10.84-22-19.13-39.82-32.55-66.11-30.82a67.64,67.64,0,0,0-39,21.41q-17.37-4.43-34.43-10c-26,1.28-21.27-19.19-35.07.65a29.2,29.2,0,0,0-7.77-22c-14,7.15-52.32,26.52-60.95,39.57-2.59,3.93,93.84,31.72,94.45,31.91,9.35,2.81,5.37,26.67,16.39,30a160.07,160.07,0,0,1,18.83-43.37q-2,22.05,12.93,3-2.38,5.69,2,11.06C1468,214.9,1487,204.6,1488.34,204.69Zm-27.67-24.3c1.84,1.59,1.07,3,3.73,2C1463.06,178.16,1462.85,179.47,1460.67,180.4ZM1386.45,153c1,8.26,3.84-2.09,7.91,11.46,11.68-17.65,9.62-21.57,23.8-23.72C1406.3,128,1385.79,153.89,1386.45,153Zm-24.64-30.67q-3.42,8.3,10-.84Q1355.28,124,1387.1,106C1378.35,113.85,1363.16,118.48,1361.81,122.32Zm130.3,128.31c-.42.6-2.28-.52-1.65,2.19C1492.66,252.58,1492,250.79,1492.11,250.63Zm3.31-1.62c-.43-2,1.95-3.34-1.88-4.54C1492,247.52,1494.91,246.7,1495.42,249Zm54.28-53.93ZM1498,229.14a8.35,8.35,0,0,0,1.76,2.92C1500,230.12,1498.77,230.45,1498,229.14Zm148.29,106.24c-10.06-50.5-16.5-21.83-39-46.73,2.23,2.46-13.69,20.77-16.31,19.95-12.91-4.08,13.63-67.82,7.42-72.2-10.18-18.18-50.14-32.91-69.76-27.37q-6.54,11.79,5.49,17.26c-21.05,13.51-8,18.07-19.8,35.9q1.54-23.72-2.19-.85a23.79,23.79,0,0,1-.15-21.53c-73.3,38.59,30.29,135.94-28.18,179.36C1565.74,409.52,1635.91,402.61,1646.25,335.38Zm-134.88-125c-.16-.78-1.24-1.45-2.58-1.84C1508.85,210.3,1509.81,211,1511.37,210.42Zm34.06-5.92C1545.58,206.19,1552.48,204,1545.43,204.5ZM1507.68,214c-3.05,10.7,4.6,5.91,2.57-1.77C1506.87,210.88,1508.84,213,1507.68,214Z"/><path id="ME" class="cls-1" d="M2147.21,163.64a10,10,0,0,1-4.77-.15C2146.09,168,2145.52,165.18,2147.21,163.64Zm3.73-6.3c-1.85-6.54-5,2.11,0,0Zm11.61-15c-12.81-2.68,1.09,17.87-1.27,5.42C2167.48,147.18,2165.33,145.84,2162.55,142.38Zm40-33.78c-2.64-2-7.74-1.55-6.07,2C2182,91,2140.79,9.61,2119,5.07c-73.91-15.4-38,125.22-69.95,121.62-12.49,7,37.84,105.48,39.07,107q-1-3.75,2.69-.85c3.21-9.13,7.6-38.41,15.11-45.81.63,5.44,3.12-6.79.12,6.42q3.48-12.77,1.5.35c5.24-12.47,12.25,1,2.62-14-1-3-4.34-4.22,6.07,9.84a15.88,15.88,0,0,1,1.2-14.33c-.17.83,1.1,27.55,3-.58,1.3,17.9,2.42,3.71,6.12-3.81,2.49,12.86,6.87-5.07,5.15,5.38,4.51-6,10.37-29,8.19-35.4,3,8.6,7.25,2,2.72,12.11,8.52-2.15,16.08-4.63,10-12.3,4.74,6,8.73-4.24,9.68-4.5,3.12,1.71,4,.87,8,8,4.91-10.46-1-7.73,4.77-5C2172.44,126.41,2195.54,121.22,2202.57,108.59Z"/><path id="MD" class="cls-1" d="M1945.23,534.11Zm-1.93-7.77c-1.1.46-2.7-1.7-2.07,1.42C1944.15,528.32,1943,526.47,1943.3,526.35Zm35.05-12.57a108,108,0,0,1-2.69,13.45C1977.76,523.14,1978.37,513.82,1978.36,513.78Zm1.11-7.92c-2-3.18-.62,2.9-.34,4.76A7.73,7.73,0,0,0,1979.47,505.86Zm-2.26,10.26c3.07-8.69-5.89-6.27.38-11.3-41.57,9.47-24.69-41.66-63.21-52.73-35.22-10.12-127.06,16.81-120.26,51.43,22.78-20.31,36.77-34.18,61.91-28.91,39.6,8.3,24.42,33.53,35.78,50.69-5.24-7.92,27.47,6.41,17.36,3.86-4.56-9.36,22,5.43,23.8,6.88a99.67,99.67,0,0,1-21.64-28.44q3.8,11.48,15.22,12.34c2.26-8.61-16-34.24-14.76-33.17,11.45,5,3-6.08-4.38-8.76,7.49.73,11.89-5,7.37-8.57q3.93-.79,5.5,3.11c0-3.5,1.21-12.92,10.61-17.76q-3.64,14.92,4.27.12c2.8,8.91-11.47,12.5,2.08,10.73q-19.16,2.76-11.23,20.06-.57-6.29,4.77-6.8a23.35,23.35,0,0,0-8.49,16.84c2.1-7.24,6.48-5.46,7.11-5,.73,3.9,2,5.24,3.12,5.07q-8.74-.88-7.61,8.61c.6-5.22,9.48-4.26,15.72-1.76-4.19,11.84-22,2.39-6.49,19.1-.11-.66,11.65,1.26,13.72-7.65-2.16,11.23,5.23,2.87-.42,14.84,12.36-10.27-3.8,4.29,7.69-1q-7.55,4.58-4,7.76,2.45-2.82,1.42,2.27C1953.4,537.39,1977,516.14,1977.2,516.12Z"/><path id="MA" class="cls-1" d="M2141.11,313C2135.14,303.2,2132,327.43,2141.11,313Zm-19.45-.54Zm-4,1c-1.46-5.32-7.35,2.38-10.31,5.34Q2126.27,319.61,2117.66,313.47Zm19-12.57c.06-2.21.9-3.81-.27-5.23A27.67,27.67,0,0,0,2136.65,300.91Zm.77-6.57c-5.49-10.82-3.89-9.56-14.53-15.19,6.53,1,4.25,7.32,9.34,3.58,6.32,15-29.61,13.67-27-.15q.28,4,2.84,1.73-9.12-18.26-18.69-9.5c-6.69-6.95,12.09-19.29,8.66-23.4-3.35,7.63-9.44-2.07-9.8-6.92-20.17,5.07-37.3,18.59-60.27,23.52h0l0,0c-55.67,3.93-24.93,30.38-6.45,39.36,30.32,14.73,49.61-21.24,71.22,10q3.62-10.41,3.77-3.57c5.8,1.09,14.92-32.17,14.49-4.62C2122.32,304.83,2132.54,295,2137.41,294.33Z"/><path id="LA" class="cls-1" d="M1338.82,1063.37c-4.84-2.74-10.29-3.35-13.61,1.16C1331.21,1068.53,1338.61,1070.27,1338.82,1063.37Zm37.59,24.22Zm.12,0a4.28,4.28,0,0,0,2.92.27A10.24,10.24,0,0,0,1376.52,1087.59Zm5,.12Zm8.07-1.54Zm10.69-.31c-1.45-.19-2.79-.85-4.34-.89C1397.06,1085.67,1400.09,1085.83,1400.32,1085.86Zm62.3-36.09.19-.23C1462.56,1049.78,1461.69,1050.61,1462.63,1049.77ZM1449,1036Zm4.92,23.21c1.91-2.81-.36-.88-1.76.35A3.26,3.26,0,0,0,1453.9,1059.22Zm-55.74,17.14c.48-2,.14-.53-.19,1A1.61,1.61,0,0,1,1398.16,1076.37Zm59.89-20.45c2.08-3.14,1-1.66-.61.5A1.76,1.76,0,0,0,1458.05,1055.92Zm-13.72-25.68C1453.06,1029.34,1452.81,1018.45,1444.33,1030.24Zm1.81,5.88Zm1.8,6.07Zm-64.65,45.36Zm78-13.57c.39-.17-28.71-14.05-34-20.56q11.28,1.8,2.08-4.15c12.94,4.81,7.38-4.43,15.75-10.34-4.11-.69-7.22-3.5-2.38-8.53-4.88-1.46-12.94,11.2-14.84,6.23q-3.3-5.24,2.19-9.8c-.66.15-4.47.47-2-.5,1.28-.8-34.52,17.27-32.48-2.64,2-19.39,32.17,5.51,39.36-.05q-19.27-16.19-13.22-40.71-42.48,4-85,7.19c16.39-23,32.25-84.73,5.69-105.31-14.25-11-107.4.74-118.19,19.67-8.59,15.08,37.81,157.11,30.39,154.83,16.31,5.05,54.64,14.2,71,2.85-5.06-1.91-3-2.87-8.5-6.5,9.81,4.39,62.14,4.49,49.16,22.95-1.92-8.7-1.77-4.74-8.76-3.92,17.53,32.21,48.36-25.13,50.47,8.65,21.1-8.29-2.32-20.84.58-25.37,18.41,13,45,7.73,37.67,30.33C1456.2,1077.13,1461.91,1082,1461.32,1074Zm-20.26-29.06c-1.45.34-3.26-3.27-2.26,2.08C1440.22,1046.13,1441.29,1044.87,1441.06,1044.93Zm23.3,2.34C1470.08,1036.94,1463.09,1049.72,1464.36,1047.27Zm-40.83,22.33c-1.05.12-1.76.41.08,1.27A1.77,1.77,0,0,0,1423.54,1069.6Zm44.09-38.29C1459.49,1021,1474.09,1053.1,1467.63,1031.31Zm-64.15,50.48c-.55.34-1.67.83-2.62,1.38C1402.1,1083.18,1402.84,1082.18,1403.48,1081.79Zm16.68-8.88c-1.34,1.28-2.46,1.31-3.15,3.15C1418.51,1075.29,1419.51,1073.52,1420.15,1072.91Zm1.16-1Zm-15.57,11.88a3.58,3.58,0,0,0-2.26,1.65C1404.71,1085.08,1406.57,1084.59,1405.74,1083.83Zm8.65-20.87C1416,1064.08,1413.3,1058.52,1414.39,1063Zm51.55-25.1.31.77A2,2,0,0,0,1465.93,1037.85Zm-1.69-.31Zm.65-.81Zm.42-.23q-.47-.38,0,.77A3.89,3.89,0,0,0,1465.32,1036.51Zm-27.9,13Zm23.9-8.15c-.06-1.45.57.65,0,0Zm-11.88-7.34Z"/><path id="KY" class="cls-1" d="M1708.17,605.22C1694.05,606.45,1661.38,563,1648,556c2.23,1.16-66.66-15.27-61.79-15.24-14.52-.09-32.69,70.52-62.51,57.68,0-.13-3,14.55-8.3,18.29-24.53-24.77-107.59,54.14-107.05,81.84,78.32-7.55,259.14-6.1,299.81-93.37Zm-304.81,90.29c.12,2.08-3.65,3.89,2.07,3.23C1405.78,696.77,1403.39,696.08,1403.36,695.52Z"/><path id="KA" class="cls-1" d="M1190.48,688.44c-60.48,3-121,2.75-181.55,4.07-22.36.49-106.47,18.55-124.81,1.27-13.18-12.41-.13-76.88.3-92.84,1.16-43.32-10.12-45,27.45-62.16,28.88-13.16,221.12-18.2,248.74.66,33.15,22.64,28,109.46,29.88,149q-19.78,5-36.86-3.54C1153.26,677.27,1189.77,673.41,1190.48,688.44Z"/><path id="IN" class="cls-1" d="M1583.87,555.72c-22-24.93,10.76-119.69-20.75-142-23.31-16.48-91.4,26.85-105.76,10.15,4.34,37.68,32,175.11-1.15,201.27,13.56,5.35,48-21.65,59.2-8.42,5.2-4,8.3-18.43,8.3-18.29C1536.23,604.7,1582.3,559.8,1583.87,555.72Z"/><path id="IL" class="cls-1" d="M1473,570.67c.33-37.53,1.18-104.42-15-139-19.85-42.59-2.51-33.27-52.7-41.58-21-3.47-53.38,6.23-73.53,6.23,41.11,34.66,1.29,33.26-9.12,62.81C1309,497.71,1313,523.2,1333.35,558c10.81,18.51,23.49,25.78,32.85,38.29,8,10.68,26.23,68.68,45.88,76-3.54-13.12,22.07-.36,33.44-8.34C1449.83,660.9,1474.48,574,1473,570.67Z"/><path id="ID" class="cls-1" d="M546,290.37c-4.05,41.92-8.45,83.81-12.53,125.73-54.58-5.8-148.53.6-197.21-23.62-47-23.38-31.54-47.37-19.14-98.87,5.47-22.73,19.38-48.23,24-71.6,10.55-53.94-29.71-186.54,48.06-175.69-3.69,24.94-8,58.08.73,76.91,3.38,7.27,43,42,43.7,44.42,5.4,20.13-7.66,41.31-2.32,58.76-5.79-18.9,47.37,62.54,47.29,62.5,15.25,8.66,83.35-30.33,65,18.56C543.29,308.06,542.34,287.6,546,290.37Z"/><path id="IA" class="cls-1" d="M1331.67,396.31c25,40.2,10.75,24.69-9.21,61.39-3.83,7-.28,46.77-13.11,48.6-21.38,3-162.57,7.87-173.6-.48-8.43-6.38-32.48-101-32.57-105.64-.62-31.86-4.78-26.95,12.6-42.79,7.29-6.65,159.71-16.17,170.63-10.55C1294.53,351,1331.58,392.52,1331.67,396.31Z"/><path id="GA" class="cls-1" d="M1787.93,946.26C1791.73,919.72,1783,953.47,1787.93,946.26Zm15.69-67.69c-23.7-3.71-130.79-123.11-121.66-136.15-35.05,5.94-70.35,10.42-105.59,15.07a1331.39,1331.39,0,0,0,45.78,128.7c-7.36,100.57,58.75,91.38,135.89,84.67,9.26-.81,10.23-17.88,28.63-20.55-3-9.1.07-11.33-3.88-19.38,6.07,1.65,8.52-13.65-1.43-14.14,5.82,1.28,11.59-4.75,12.49-11.15q-4.76,6.82-7.3.19c3.34-1.79,3.75-8.43,7.22-1.62,2.51-8.52-2.77-3.87-6.11-9.76,4.16,1.49,9.27-10.65,16-15.87C1783.62,875.43,1801.37,880.32,1803.62,878.56Z"/><path id="FL" class="cls-1" d="M1656.94,1017.06a32.5,32.5,0,0,1-2.85,2.5C1656.41,1018.85,1657.24,1016.67,1656.94,1017.06Zm-4.54,3.81c-4.1,4.49-10.13,9.73-16.52,9.11C1642.31,1031.22,1650.74,1023.95,1652.4,1020.87Zm-16.29,6.57a9.53,9.53,0,0,0-5.85.08C1632.7,1029.69,1634.85,1030.43,1636.1,1027.44Zm-74.92-29-27.79,7.65C1547.09,1005.07,1570.24,998.42,1561.18,998.42Zm329.57,197.42Zm-91.6-24.26C1788.25,1167.33,1788.94,1170,1799.16,1171.58Zm90.29,3c3.17-14.76-.09-51.94-19-56.89,6.52,2.43-32.5-60.17-38.06-74.46a139.59,139.59,0,0,1,26.18,43.86C1834.83,1049.78,1808,979.78,1791,959.4c6.25-42-39.46,18.33-28.51,13.43-.7.31-66.12-3.22-75.46-3.26-32.44-.13-54.67-8.45-84.57-7.87-24.8.47-67.61,4.31-86.83,17.58,1.76-1.22,21.08,23.6,7.76,30.75,11.89-3.62,20.38-17.44,20.18-19.5,10.87,6.87,3.75,8-5.8,13.58,1.37-.49,45.17-21.81,47.66-6.76-6-2.14-8.27-2.25-17.64.69,120.93,13.18,9.49,16.23,34.1.31q3,7.72,7.41-1.31c.22,17.55,4.12-1.45,6.81,14,9.06-1.13-3.31-1.71-9.65-3.58-.17-.11,20.34,18.75,19.4,19.06,9.39,2.3,38.2-28.93,70.09-19.4,41.73,12.46,42.63,39.22,56.92,68.19,5.26,10.67,6.33,40-1,31.52,6.7,7.48,18.05-3.6,3.61-5.54q5.89-2.46.39-5.8c5.81.76,10.24,16.28,11.85,4.7-5.31,3.34-.09,20.59-7,22.44,1.92.31,3.67,5-2.69-1,16.13,13.86,6.18,9.2,21.95,28.79-.9,2.15,25.51,8.92,3.12-5.88-6.55-6.16,20.17,23.83,13.45,20.55q8.6-.47,11.61-8.94c-10.06,13.76,31.13,77.6,48.62,70.15-17.1-13.07,27.32-1.54,26.44-2.5,1.09,1.91,7-46.7,9.07-33.14C1890.93,1179.87,1888.08,1170.82,1889.45,1174.62Zm-44.52-120.28c-7.37-7.78-2.47,11.1,1.43,16.15A24.11,24.11,0,0,1,1844.94,1054.34Zm2,17.11C1847.69,1072.81,1845.37,1068.66,1846.94,1071.45Zm14.45,21q7.65,14.2,16.57,27.6C1823.05,1011.86,1868.52,1106.11,1861.39,1092.4ZM1893.21,1286a.9.9,0,0,0,.35-.54A.85.85,0,0,0,1893.21,1286Zm4.31-2.65Zm.7-.23Zm2.61-1.76Zm1.73-.69Zm-150.45-215.91Zm-1.2-12Zm.58,5.88Zm-.65,1Zm.7,1.8Zm-1.2-4.26Zm.81,6.11.19.23Q1751.3,1063,1751.14,1063.34Zm-3.18-10.26Zm.38,2.46Zm-.84-1.85Zm2.65-.77Zm-2.8,4.65ZM1742,1041.7Zm-10.61-.38Zm17.87,10.3Zm.54,9Zm78.53,204.15Zm-3.26-67.88Zm-14.88,69.54c-2-.22-.27.81.65,1.42A1.07,1.07,0,0,0,1810.23,1266.38Zm-.08,2.15c.16.17.42,0,.65-.31A4,4,0,0,0,1810.15,1268.53Zm-.92.31s-.1.21,0,0Zm22.64-6.19Zm1.54-62.62c-.36-1,2.41-2.41-2.16-2.19C1831.38,1200.75,1832.76,1198.27,1833.41,1200Zm1-.77Zm-25.68,68.57Zm17.49-71.92Zm2.26,1.88Zm-8.65-1.16c-.46,1-2.48.62-.31,2.08C1821.4,1197.85,1819.81,1196.77,1819.87,1196.64Zm-45.2,73.89a.19.19,0,0,0,0-.27Zm.23-.27q.16,0,0-.15Zm.27.19Zm-2.89.12ZM1766,1130.3c-1.74-1.5-2.93-3.08-4.8-4.19Q1767.91,1134.66,1766,1130.3Zm26.83,30.37c-4.65-.9.31,5.45,2.85,9A33.21,33.21,0,0,0,1792.81,1160.67Zm15.65,108.25Zm-33,.19c-.05,0-.07,0,0,.12S1775.55,1269.15,1775.48,1269.1Zm32.91-.69Zm-20-104.79C1782.68,1153.24,1791.51,1167.8,1788.36,1163.62Zm48.32,94.18C1833.95,1255.86,1838.63,1268.21,1836.67,1257.8Zm-51-101.4c-2.58-5.81,4.4,9.67,0,0C1785.41,1155.92,1786.12,1157.48,1785.62,1156.4Zm65.47,65.12Zm6.68,2.69Zm1.11,1.3Zm-5-4Zm-1.23.88Zm-.19-2.11Zm-89.1-100.78C1764.54,1119.65,1763.41,1119.5,1763.41,1119.5Zm96.41,104.29ZM1839.25,1257Zm-85.91-187.74c.44,0,.06-.16-.42-.31A.55.55,0,0,1,1753.34,1069.22Zm125.58,154.33Zm-6,5Zm.88,10.76Zm.61-10.61Zm-2.92-1Zm1.66,13.84Zm4.11-4.61a16.27,16.27,0,0,0-1.43,2.34A2.73,2.73,0,0,0,1877.23,1236.93Zm-2.58-8.5Zm14.88-15.18c-6.06,7.07-6.92,15.44-11.38,23.06C1886.53,1225.53,1889.57,1214.63,1889.53,1213.25Zm-12.88,11.91Zm-2,4.88Zm-3.12,5.07Zm2-5.92Zm-24,26.64Zm-6.19-1.88C1842.5,1252.91,1851.37,1266.56,1843.32,1254Zm-2.46,2.84Zm1.35,1.12Zm4-3.2Zm23.18-16.37Zm1,5.57c-4.74,1.53-.43,2.95,0,0C1870.13,1244,1870.2,1245.17,1870.38,1243.92Zm-5.38-9.53q.14-.1-.15-.15Zm-5.53,16.45Zm5-3C1853.25,1256.22,1863.76,1248.95,1864.5,1247.85Zm5.69-14.45Zm21.95-28.22c-.3,1.21-1,3.93-1.3,5.11A6,6,0,0,0,1892.14,1205.18Zm-9.84,22-.27-.69C1881.51,1227.46,1881,1228.48,1882.3,1227.16Z"/><path id="DE" class="cls-1" d="M1948.87,439.82c-13.45,26.33,27.91,34.72,27.07,55.62,0,.28,2.29.94,3.22,9-35.55,7.27-25.35-9.65-37.82-34.47-14.43-28.7,9.29-21.56-.91-25.9Q1930.46,433.3,1948.87,439.82Z"/><path id="DC" class="cls-1" d="M1896.48,504.13C1897.24,486.81,1895.6,505.18,1896.48,504.13Z"/><path id="CT" class="cls-1" d="M2062.23,296.86c9.59,36.27,1,24.49-13.13,39.25-1.86,1.93-47.67,25.9-49.22,24.06,44.47-29.07-38.4-54.34,62.35-63.31C2064.67,306.06,2050,297.95,2062.23,296.86Z"/><path id="CO" class="cls-1" d="M885.36,539q-1.24,77-2.34,154.1c-97.49-1.95-195-6.27-292.13-14.61,3.95-45.87-4.2-121.59,13.55-163.62q-15.69-62.34,43-37.89,29.82,2.2,59.67,3.89c41.53,2.47,100.21-6.18,139.37,6.15,53.42,16.82,39.62,10.16,38.64,70.06C885,559.36,885.47,531.76,885.36,539Z"/><path id="CA" class="cls-1" d="M169.14,841q-10.08-19.72-4.2-1.35C176.31,860.34,167.14,834.81,169.14,841Zm-41.82-28.17c-1.69-.2-2.26-1.58-4.11-1.62C127.09,817.71,126.2,813.73,127.32,812.87Zm48.39.89q-15.77-10.33-4.63,2.12C183.27,831.7,174.12,810.9,175.71,813.76Zm-65.54-42.48c-1.64-1.8-4.56-2.93-9.34-2.49C102.83,776.17,112.16,777.48,110.17,771.28ZM98.6,766.7c-2.57-.92-2.25-3.4-5.42-.35A19.34,19.34,0,0,0,98.6,766.7Zm31.9,5.15c-5.67,1.48-10.19-3.17-15.64-3.19C116.48,774.61,131,778.74,130.51,771.86ZM363.21,794c-36.92-57.07-73-109.83-115.28-163.42-31.78-40.32-83.64-79.81-89.33-131.14-3.33-30,42.78-101.22,25.53-128.42-16.48-26-137-31.51-161.06-36.95-3.14,17-11.31,60.18-7.34,58.51C-20,418,23.92,508.9,35.41,542.3c-7.53-18.21-2.54-3.33-8.61,2.53.18-.2,43.06,10.91,55.12,3q-12.37,8.48,8.34,9.57c-3.5-6.67-32.48-12.1-39.56-5.8.62,1.4,10.7,28.06,10.76,28.14a29.88,29.88,0,0,1-13.84-19.91C28.79,575.67,84.21,693,90.64,704.5c21.79,38.92,8,29.2,52.45,59.75,31.7,21.78,73.94,51.83,74.67,95.4,4.15-1.29,9.69,5.16,1.23-1q7.78,5.09,1.05,5.69c35,23.65,101.18,1.4,113.72-10.48C329.52,857.92,366.71,788.23,363.21,794ZM24.38,559.48Zm24.68-3.77a.5.5,0,0,0,.46.31Zm1.85,2.46c.2,1.14.41,1.92.46.15Zm86.37,217.33Zm10.88,29.18Z"/><path id="AZ" class="cls-1" d="M587.16,724c-6.47,82.17-20.22,163.9-20.22,246.51v.19c-64.52-3.71-199.56-29.14-242.45-86.5-6.75-9,25-64.86,26.62-75.52,5.53-37.24-.3-81.55,12.82-108.08,20.82-42.1,43.57-39.72,99.39-34.45,90,8.49,129.11-8.7,121.13,92.12Q585.81,741.17,587.16,724Z"/><path id="AR" class="cls-1" d="M1398.28,725.38c3.53,5.74-16.63,49.39-22.69,63.14-7.53,17.09-21.32,77.89-24.64,81.93-20.57,25-99.5,32-127.67,9.73-34.58-27.34-22.92-119.27-31.57-166,38.25-1.92,198.9-38.66,179.16,14.34C1500.25,716,1375.75,728.05,1398.28,725.38Z"/><path id="AL" class="cls-1" d="M1497.6,1013a54.78,54.78,0,0,1-8.76,3C1492.87,1016,1501,1016.28,1497.6,1013Zm133-55.51c-29.74-38.14-12.53-120.79-42.72-165.14-34.38-50.51-52-29.22-120-23.24,19.09,17,4.35,112.39,5.47,135.87.92,19.3,19.19,154,25.28,83.89,11.43,8.19,14.61,21,2.84,26.44,44.22-9-.1-27.82,21.26-42.65C1550.38,953.41,1614.63,972.84,1630.56,957.48Z"/></g></g></svg>