<svg xmlns="http://www.w3.org/2000/svg" viewBox="0 0 2105.63 1228.62"><defs><style>.cls-1{fill:#ff6b61;}</style></defs><title>map-2</title><g id="Layer_2" data-name="Layer 2"><g id="Layer_1-2" data-name="Layer 1"><path id="WY" class="cls-1" d="M773.49,365.64q-1.51,48.63-3.27,97.25c-89-3.21-177.91-9.52-266.55-18.17h0c6.06-64.3,12.83-128.54,19.28-192.8,52.93,5.31,184.66-8.82,228,13.77,42.17,22,20.75,61.31,22.19,111.09C773.13,375.84,773.81,356.78,773.49,365.64Z"/><path id="WV" class="cls-1" d="M1710.5,455l4.3,24.9c7.37-6.57,81.56-57.73,63.49-9.27-19.62-10.26-50.81,26.78-63.13,43.64-19.47,26.64-10.46,70.67-57.81,71.38-19.81.3-41.93-8.86-49.79-31-8.32-23.47,15.24-36.38,20-44.34,1.42-2.39,43.73-95,35.46-92.63,7.49,42.62-4,46.89,47.52,37.33C1711.72,462.19,1696.89,457.5,1710.5,455Z"/><path id="WI" class="cls-1" d="M1249.46,173.35c2.41-.22,4.9-1.63,7.25-4.41C1253.59,168.82,1252.18,171,1249.46,173.35Zm6.37-7.43a2,2,0,0,0,2.31-2.13C1252.55,165.3,1255.7,166.34,1255.83,165.92Zm-13.13-1Zm139.36,89.67c-6.82-4.56-18.38,15.38-22.86,12.11.7.52,6.87-40.3,1.94-48.52C1351,201.29,1266.36,177.71,1244.5,182c10.91-23.65-34.91-9.68-41.49-4.49-15.85,12.5-17.47,53.47-16.23,66.62,2.9,30.61,96.66,110,85.63,133.14,34.8,0,70.87-6,105.49-9.31C1371.06,337.14,1383.48,261,1382.06,254.63ZM1251.3,166.69c-.26-.91,1.82-1.67-1-2.57C1249.27,165.84,1250.89,165.25,1251.3,166.69Zm10.81-6.51Zm134.07,66.65C1393.28,222.6,1389.93,225.89,1396.18,226.83Zm-3.79,4.89c-6.55-5.85-16.06,20.59-10.31,20.75C1387.23,252.62,1392.9,231.22,1392.39,231.72Z"/><path id="WA" class="cls-1" d="M136.5,23.28Zm-2.28,4.6c.36-2.19.29-3.17-.26-7.17C129.58,24.09,132,25,134.22,27.88Zm-3.09-12.47c-2,7.89,6.18-3.75,5.56,2.75C136.9,15.95,133,14.81,131.13,15.41Zm2.72,29.79C137.33,45.77,135.09,43.54,133.85,45.2Zm.59-33.76c.31,1.09.8.68,1.25.22C135.07,11.12,134.56,11,134.44,11.44Zm-4.23,8.76c1.18-.38,1.7,1.34,2.69-.59C130.81,18.69,129.87,20.31,130.21,20.2ZM142,30.27q-12.48,13.06,2.47,23-1.67-13.93-4.2-4.31C142.35,42,141.52,29,142,30.27ZM143.78,16c-2.14-1.37,1.12.31,0,0C143.56,15.86,144.21,16.12,143.78,16Zm-1.47-.18c0-2.53-1.09-.19,1.43,3C143.71,17.64,142.3,16.6,142.31,15.82Zm-1.77,3.57Zm-.18,1.4c0-.1-2-1.25-1.07,2.21C141.5,22.81,140,21.88,140.36,20.78Zm-3.24,57.82C135.79,77.13,140.64,75.63,137.12,78.61ZM135,67.31C141.57,70.25,138.7,57.25,135,67.31Zm-8.42,18.54c-.51,1.29-2.87.88-.44,2.72C128.65,87.11,126.29,86.47,126.53,85.85Zm-4.82-5.19c.3-.17-1.59-.57-1.14,4.63C122.48,83.37,120.71,82.59,121.71,80.66ZM75.26,109c.2.06.49,2.08,1,2.13C76.58,106.08,75.5,109.05,75.26,109ZM125,15Zm4.56-1.32c-.15.06.82,1.28,1.36-.81C128.88,12.41,129.49,13.73,129.58,13.69Zm-3.64,2.75C122.93,19.85,132.22,24.53,125.94,16.44ZM332.46,36.67C268.09,26.59,204.41,12.38,139.85,3.46c2.89,4.28,8.59,15.65,8.72,20.49-8.37-7,.18,7.65-9.31,1.14.94,3.75,6.76,22.19,7.87,23A23,23,0,0,1,146,39.17C169.68,58,118.64,91.08,118.7,90.74c-5.5-4.18,3.79-8.48-5.92-3.65,1.38-.65,10.21-9.14,12.36-12C123.95,87.39,126,80.53,132,83c2-10.83-1-20.64,2.24-14.93-3.54-12.82,12.69-4,2.76-16.92,3.53,9.75-25,22.91-22.1,25.74-3.08-3,12.34-18.84,12.57-22,1.24-.06,3.1-.33-.41,6.8q15.33-6.07,6.4-20.74c-10.94,6.76-44.09-17.4-64.11-25.67C74.78,31,77.72,70.28,73.35,86.88Q79.54,79.61,86,88q-8.59,9.63-10.67-.07-2.56,11.75,9.53,13.46C77,99.2,76,106.91,79.12,113.87c-6.78-.44-4.84-10.1-3.94-12.91-40.35,63.35,213.72,72.17,245.36,77C304.1,132.83,370.8,42.55,307.08,32.68,315.54,34,324,35.41,332.46,36.67ZM132.75,0Zm-8.46,14.2Zm17.32,9.85c1.22-1,4.22,1.15.59-2.57C141.49,21.87,142,23.75,141.61,24.06Z"/><path id="VT" class="cls-1" d="M1887.41,154.08c-8.34,0,1.18,111.05,51.09,100.48-28.22-18.53,13.56-92.19,6.62-115.6-18.25,4.85-41.08,9.73-58.3,14.06Q1900,150.29,1887.41,154.08Z"/><path id="VA" class="cls-1" d="M1878,579Zm-3.16-32.81c.16-.35,1.82-.42,1.11-3.75A13.6,13.6,0,0,1,1874.8,546.19Zm3.64-10.38Zm4.71-31.26c-11.34,2-22.65,35-11.92,47.19q1-8.54,2.25-2C1872.06,531.33,1884.58,517.33,1883.15,504.56Zm5.63-2.1c-1.73,3.65-2.83,7.55-3.64,9.27C1888.22,509.16,1888.23,505.74,1888.78,502.46Zm-14.27,65.29c.44,1.43-49.31-11.18-56.79-14.12,2.73-.1,42.17,3.85,41.69,5.48-5.13-4-23.13-15.48-24.51-19.47,21.58,16,11.82-2.3,22.29,6.26-.05-11.58-24.76-31.67-42.33-33.77,15.43-2,24.94,17.11,37.41,18.61-8.1-17.82-20.49-25.2-47.16-25.85,5.65-45-20.45-31.07-48.25-45.31-6.33,35.14-34.48,44.23-42.08,55.48-4.48,6.63-78.38,124.51-81.43,62.43-19,22.11-37.22,38.1-59.73,56,39.51-5.57,304-60.59,307.67-54.14C1887.76,592.17,1871.93,563.9,1874.5,567.75Z"/><path id="UT" class="cls-1" d="M508.53,396.24q-2.55,24.23-4.85,48.48h0c100,7.61,72.23,42.82,65.47,133.64-3.14,42.18,3.55,50.81-27.31,67.12-16.39,8.67-113.22-6.19-131-13-32.65-12.49-29.6,2.18-43.71-27.74-12.6-26.71,16.61-115.42,20.13-146.62,4.37-38.69-3.38-62,30.72-73.65C434.2,379,513.47,404,501.82,402.78Q487.82,395.44,508.53,396.24Z"/><path id="TX" class="cls-1" d="M1040.78,1170.18l8.35,29.57a442.81,442.81,0,0,1-10.16-54.7C1043.34,1130.59,1042.48,1176.22,1040.78,1170.18Zm11-56.75c-9.34,16.25-9.52,4.26-13.75,30.6A149.11,149.11,0,0,0,1051.8,1113.42Zm8.94-14.56c-4.19,3.56-5.24,8.41-7.5,14C1055.75,1107.91,1060.51,1103.91,1060.75,1098.86Zm19.12-13.72c-4.55,4.78-17.93,8.35-18.24,16.62C1066.31,1095.52,1078.55,1092.18,1079.87,1085.14Zm5.63-4.27c-1.42,1.27-3,2.13-4,3.68C1086.55,1081.78,1085.71,1080.06,1085.5,1080.87Zm61.09-45.79q-7.19-5.86-11.91,13.17Q1160.61,1037.43,1146.59,1035.08Zm51.53-86.73c-15.41-44.69-19.06-115.46-59.29-131.76-33.07-13.39-71.76,5.19-98.56,2.62-28.89-2.78-64.25-14.5-91.67-31.89-34.68-22-6.94-22.68-22.48-67.94-12.93-37.66-48.92-52.89-94.38-34.34q-50.11-15.19-31.49,40.3l-1.52,40.32c-.79,23.62,10.52,100-3.32,120.94C770.32,924.47,694.35,904,643.26,900.87c1.07,26.38,55.42,55.32,68.87,73.56,17.79,24.13,11.36,55.9,46.43,68.78,53.27,19.56,66.55-57.21,126.43-2.61,36.84,33.6,41.76,105,74.72,136.69,10.56,10.16,95.8,36.76,90.67,23.39-1.57,2-23.62-56.9-29-59.69q10.42.57-.18-8.42c5.66,8.24,19,2.18,10.44,8.57,14.89-.9,11.18-26.87.26-28.8,7.45.77,23.14,5,21-12.68q-3.77,10.29-7.95,2.42c1.3-4.17,13.74-14.53,11.84-2.87,2.69-1.13,8.66-32.94,21.39-17.25-3.42-.73-8.55-4.52-9.4-12.95q13.39,1,7.06,7.24c7.29-3.46,5.36-3.84,1.84-9.23,8.22,18.33,27.77,3.81,26.89,4.27,2.14-1.13,59-29.74,31-53.44,14.88,7.22,25.91-2.68,12.73,16.37,32-23.82,31.23-12.17,44-48.26C1194.26,980.47,1198.14,948.31,1198.12,948.35Z"/><path id="TN" class="cls-1" d="M1573.61,633.47c26.33-3.71,52.45-12.71,79.26-12.8-9.54,30.82-56.83,55.78-87.19,76.14-22,14.74-11.59,14-44.09,24.64-59.18,19.42-143.27,17.05-204.49,22.07,12.73-17.36,27.51-62.91,23.2-76.5,25.95-3.37,239.46-25.16,241.74-34.15C1581.69,634.29,1563.31,637.52,1573.61,633.47Z"/><path id="SD" class="cls-1" d="M1046.58,224.91c-1.41,42.32.26,112,7.91,164.75-29.72-.78-67.56-20.71-101.16-22.46-59.51-3.1-120.09.52-179.84-1.56,1-29.39-3.46-77.79,4.46-106.13,12.16-43.57,5-34.86,58.62-33.67q105,2.31,210-.92c-.31,9.28-34.47,1.22-39,2.63A269.63,269.63,0,0,1,1046.58,224.91Z"/><path id="SC" class="cls-1" d="M1776.74,776.59c-.29,1.23-1.29,1.57-.7,3.2C1776.61,778.88,1776.54,777.46,1776.74,776.59Zm23.5-44.4c-26.56-34.74-107.45-50.48-150.77-40.72-51.67,11.64-41.2,19.45-22.36,49.36,11.31,18,75.8,94.14,94.93,97.73q4.05-20.33,2.21-4.19,6.06-12-5.08-20.82c9.82,7.76,13.36,13.42,7.69,2.43,1.37,1.82,9.25,23.86,10.93.81-5.59,6.62-.68-4.4-11-2.5,3.82-4.17,38.29-11.22,26.38-19.9,9.42-8.87,20.14-13.1,25.67-21,6.18-8.88-11.42-15.35,2.76-5.33q-.47-23,18.61-35.82Z"/><path id="RI" class="cls-1" d="M1990.32,318.82c-1.29-.2-1.75-3.14-1.69,1.66C1989.27,320.5,1992.14,319.09,1990.32,318.82Zm3-18.57c.83-1.93-1.32.41-.55,3.9C1993.93,302.76,1992.74,301.63,1993.34,300.24Zm4.82.55C1995.46,280.47,1990.92,310.36,1998.16,300.79Zm-3.13-7.54q-5-20-21.31-10.39a83.25,83.25,0,0,0,4.46,32.19C1990.7,305.3,1987.73,280.56,1995,293.25Z"/><path id="PA" class="cls-1" d="M1883.07,394.55c-47-25.36,11.38-67.68-60.08-79.27-25.52-4.14-164.57,35.3-156.26,26.38-27,23-9.13,110.65,10.54,119.53,16.73,7.55,75.94-13,91.65-16.35C1798.71,438.46,1892,416,1883.07,394.55Z"/><path id="OR" class="cls-1" d="M100.34,129.1c14.66,2.78,6.67,24,16.45,31.59,4.68,3.64,59.09,8.72,56.8,8.59,33.61,1.93,108.36-16.7,136.83,5.32,34.56,26.71,6.87,28.11-4,62.29-11.57,36.4-13.75,86.48-20.31,131-56.25-8.51-111.72-21.41-167.9-30.27-12.08-1.91-81.9-3.42-92.36-18.57-12.39-17.95-.61-78.94,11.73-65.69q1.34-10.52-6.11-1.65,3.64-21.23,11.88-13.46a3.45,3.45,0,0,0-4.12.26c5.33-22.26,17.41-73.61,27.7-86.25-1.42,9,6.71-26.11,5.89-31.45C77.52,128.15,106.36,126.14,100.34,129.1Z"/><path id="OK" class="cls-1" d="M1138.39,681.47C1147,727.86,1149.49,775,1150.78,822c-55.88-9.91-199.85,10-227.13-52.22-22.11-50.4,30.08-68.26-37.14-85.76-9.28-2.42-102.86,16.63-86-15,12.74-23.87,148.53-7,168.76-7.24q52.5-.53,105-2.4c58.29-2,55.12-11.57,67.76,40.84C1140.68,694.7,1138.65,687.08,1138.39,681.47Z"/><path id="OH" class="cls-1" d="M1658.39,419.82c11-2.21-5.45-58.84-6.84-66.39-36.54,19.12-56.77,44.67-90.33,40.79,15.38-8-52.29-19.28-66,18.87-2.72,7.54,14.8,104.15,15.91,105.37,7.71,8.46,48.71,10.63,60.36,10.5,33.54-.38,44-3.75,58.48-20.65C1649.61,485.39,1666.92,438.45,1658.39,419.82Z"/><path id="NV" class="cls-1" d="M359.72,666.76c-1.65,6.26-22.17.6-27.4,4.82-9.24,7.45-2.21,39.9-2.65,49.76-60.27-72.68-179-175.92-172.48-271.69,3.54-51.58,5.73-88.38,52.23-96.6,44.13-7.8,142.17,24.71,187.38,30.42C386.47,464.87,383.92,610.76,359.72,666.76Z"/><path id="NM" class="cls-1" d="M647.3,910.43c-16.46.81-69-17.22-71.65,19.27l-35.09-2.76h0v-.18c.51-44.94,7-89.45,11.18-134.13,2.17-23.46-4.24-130.79,11.73-145.3,13.93-12.66,228.14,5.53,239.73,20.56,13.11,17,.39,180-5.21,202.57-11.45,46.17-4.7,30-52.79,35.37C732.79,907.23,631.77,895.55,647.3,910.43Z"/><path id="NY" class="cls-1" d="M1903.49,367.33c-2.85,2.42-4.76,3.81-4,8.17C1904.24,372.87,1904.46,370.58,1903.49,367.33Zm30.72-7.65c-2.13.5-7.43,3-10.71,4.86A47.61,47.61,0,0,0,1934.2,359.68Zm16-9.89c-5.55,3.71-10.36,9.3-17,10.67C1938.71,359.77,1947.74,352.46,1950.16,349.79ZM1980,326.65c.79-.74-28.88,15.21-25.6,15,4.39-5.52,6.59-9.7,10.92-15.27-17.6,9.32-55.36,22.7-59.17,38-2.34,9.4,21-6.53,3.74,5.54,13-6.49,22.93-12.58,44.65-23.25C1950.48,350.18,1980.36,326,1980,326.65Zm-7.61-7.13c.61-.78,2-1.49,2.58-2.43C1971.94,317.77,1972.4,319.53,1972.41,319.52Zm-82.5-127.85Zm-101.15,21.85c.45-.52,2.31-1.2,3-2.21C1789.58,210.41,1789.75,212.38,1788.77,213.51Zm3.61-3.83C1800.7,204.54,1794.6,207,1792.37,209.69Zm-3.5,16.55Zm117.3,123.47L1901,334.85c6.64,10.59,10.15,42.37,12.12,11.19,1.64-25.94,1.72-59-4.2-86.24C1900.69,222,1883,193.67,1880,156c3.2-.83-126.22,48.86-93.72,69.74,2.4-4.34,4.25,1.15,8.83-.33-3.77,8.68-8.78,8.65-.51,16.48,4.39,34.45-80.46,24.36-96.07,39.08,3.33-3.14-18.43,70.29-19.09,66.7,47.28-9.11,120.88-39.46,166.74-29.66C1863.31,321.62,1904.3,349.12,1906.17,349.71Zm-208.62-55.46c2.46-2,4.29-4.46,0,0Z"/><path id="NJ" class="cls-1" d="M1906.25,426.44c-.81,2,.57,3.84-2.5,2.87C1908.38,428.26,1909.14,428.1,1906.25,426.44Zm6.51-15.85c-1.11,4-2.12,8.12-2.94,12.1C1911.55,418.78,1912.88,413.17,1912.75,410.59Zm.26-7.72a55.16,55.16,0,0,0-3.94-27.62c.7,2.21-17.07,6.19-7.43-10.74,2.87,3.26-6.67-43.74-30.77-23.78-23.15,19.17,9.06,41.1,9.26,51.35.11,5.55-28.1,78.47,12.76,63.71-2,.71,15.19-21.39,4.3-18.39,11.49-11.75,5.41-16,13.83-42.18C1920.73,435.17,1911.1,394.14,1913,402.86Z"/><path id="NH" class="cls-1" d="M1996.1,221.68c19.94,13.86-61.14,33.61-57.56,32.85h0l0,0h0c-15.26-29-1.21-115.71,17.73-133C1967.1,154.94,1975.28,195.57,1996.1,221.68Z"/><path id="NE" class="cls-1" d="M1054.49,389.66c36.89,23.65,13.4,95.49,48.7,121.08-67.16,2.73-151.85,16.39-217.71,4.53-46.43-8.36-40.45,3.51-39.35-50.29-28.86-.5-62.12,11-76.45-15.06-4-7.31-.2-46.85,3-55.19C787.46,356,788,366.23,838.43,366.52,910,366.93,992.36,388.27,1054.49,389.66Z"/><path id="ND" class="cls-1" d="M1046.58,224.91c-52.27,1.68-199.5,26-242.09.74-44-26.08-22.79-86.49-20.74-145.61,48.45,1.65,199-24,237,12.13,21.25,20.17,32.75,141.21,3.8,131.9C1025.16,224.25,1046.76,214.22,1046.58,224.91Z"/><path id="NC" class="cls-1" d="M1824.45,725.76C1823,728.52,1823.61,727.65,1824.45,725.76Zm2.36-14.49a37.2,37.2,0,0,0-.45,4C1827.23,713.47,1828.93,710.3,1826.8,711.26Zm15.33-21.15c-3.82,2.41-7.24,5.73-8.83,9.93C1834.89,697.69,1842.43,689.78,1842.14,690.12Zm31.3-13.72c-1.26.14-2.82-.74-4.27-.48C1871.66,677.17,1874.65,676.26,1873.44,676.4Zm-7.69-1.07c-4.94,1.73-9.82,3.45-13.94,6.36C1856.22,679.23,1868.55,676.39,1865.75,675.33Zm17.69-14.64c-4.38,5.2-8.56,12.52-8.24,19.12C1876.27,674.28,1883.43,661.71,1883.44,660.69Zm4.9-8.31a22.31,22.31,0,0,1-2.1,4.6C1889.59,654.41,1888.31,652.49,1888.34,652.38Zm6.51-5.63C1883.9,659.65,1906.39,640.21,1894.84,646.75Zm12.69-20.45-4.82-12.88q10.29,16.3-2.2,30.53C1911.34,641,1908,628.38,1907.53,626.3Zm-11.22-17.44C1889.48,606.43,1897.55,615.56,1896.31,608.87Zm4.31,3.27c-1.32-1.34-18.32-33.05-20.41-32.59C1886.8,590.73,1897.73,605.69,1900.62,612.14Zm-24-30.71C1881.41,580,1879.54,580,1876.6,581.43Zm13.68,43.18c7,4.37-.23-16.75-2.91-17.84q-1.17,2.56,1.62,2.09c.49-1.14-6.91,15.56-10,14,4.75-.12-.75-11.46,1.62-13.21-13.5-9.46-27.12,28.73-31.3-11.92,7,13.12,23,11.58,11.66,3.38,4.92,2.67,14,1.42,16.33-1.69q-10.17-.78-7.17-6.18c35.11,23.44-17.95-14.56,18.76,8.05-26.29-46.19-343.63,26.88-330,115.05,62.79-9.92,111.24-30.38,167.34-16.06,22.83,5.82,48.51,23,71.25,27.63,21.6,4.35,29.12-27.08,27.69-4.39.27-1.09,19.46-38.77,12.17-44,6.23,1.83,50.95-17.36,40.35-22.4-1.25,5.08-4.21,8-4.49-1.36-2.73,5.92-13.87,18.54-25.74,1.25,4.67,2.71,24.73,1.2,20.19-4.27q-9.34,1.43,1.32-2.91c2-2.05-22.84-9.82-24.28-11.29,53.83,18.37-1.44-4.75,23.25-5.3C1865.12,635.17,1876.44,646.94,1890.28,624.61Z"/><path id="MT" class="cls-1" d="M779.3,224.22q-.7,22.55-1.44,45.09c-49.64-2.25-99.26-4.9-148.82-8.43-37.89-2.7-104-29.84-108.53,15.05a74,74,0,0,0-15.09-11.21c-5.07-1.32-41.91,8.23-55.9-.94-8.13-5.33-28.89-45.33-31.92-53.36-.81-2.15-10.46,1.81-13.28-5-5.25-12.77,12.82-29.18,8.45-42-8.19-24-39.67-37.42-44.76-64.27-10.91-57.46,11.74-53.15,57.27-49,73.41,6.74,146.38,16.94,220,22.32,25.19,1.84,113.79-9.8,134,6.85,20.74,17.1.54,121-.07,146.7C779.29,222.39,780,196.74,779.3,224.22Z"/><path id="MS" class="cls-1" d="M1390.48,972.48C1387.44,976.53,1388.44,975.79,1390.48,972.48Zm-15.16,7.06Zm19.53-5.33a2.87,2.87,0,0,0,1.65-.33A4.38,4.38,0,0,0,1394.86,974.21Zm19.78-2.13c1.36-.09,2.13.37,3.2-.33A14.43,14.43,0,0,0,1414.64,972.07Zm3.39-8.9c-7.56-50.88,16.38-330.07-106.62-207.6-51.54,51.32,7.32,129.68-34.25,189.91q40.71-3.11,81.36-6.88c-.65,7,1.05,41.34,15.71,39.24,10-13-.22-6.83,24.28-13.65-1.14,0,24.07,7.6,16.74-16.91C1415.4,947.84,1417.2,964.13,1418,963.18Zm-8.5,8.68C1390.17,969.62,1422.8,972.71,1409.53,971.85Zm-11.44.73Z"/><path id="MO" class="cls-1" d="M1250.53,483.34c-14,21.17,44.65,75.46,52.33,85.3,8.35,10.71,43.72,62.75,44.92,68.84,25.9,11.82-27.31,56.7-38,57.71,19.76-53.35-134.9-15.55-171.43-13.72-.8-16.83-1.71-199.39-53.59-199.39,37.87,0,133.94-27,165.74,1.25C1241.39,497.2,1239.6,473.62,1250.53,483.34Z"/><path class="cls-1" d="M1286.61,112.22c-40.23-3.67-75.08-6.87-110.41-13,1.8.31-37.78-1-45.82-4.41-11.79-5-31.51-34.52-40.87-33.48,1.67,32-50.73,19.52-70.55,20,14.95,64,29.8,136.27,35,196,4.35,50.36-15.67,54,38.17,65.25,23.37,4.87,88,.47,110.79-6.89,83.51-27-18-31.89-19.61-100.2C1182,181.3,1243,137.2,1286.61,112.22Z"/><path class="cls-1" d="M1498.87,182.8c10.18,3.59,19.1-8.2,5-6.62C1505,179.8,1501.53,181.79,1498.87,182.8Zm-12.21-15c.28,1.11-2.46,2.06,1.25,4.41C1490.09,169.59,1487.2,169.93,1486.66,167.76Zm66.06,191.66c0,1.95-.72,3.27.22,5C1553.47,362.56,1552.71,361.29,1552.72,359.42ZM1482.5,161.73C1492.06,175.1,1486,154,1482.5,161.73Zm-60.29,32.22c20.24,3.14,55.12-5.13,75.92-10.38-21-18.31-38.1-31.14-63.26-29.49a64.73,64.73,0,0,0-37.3,20.48q-16.62-4.24-32.94-9.52c-24.9,1.22-20.35-18.36-33.56.62a27.94,27.94,0,0,0-7.43-21c-13.42,6.84-50.06,25.37-58.32,37.86-2.48,3.76,89.79,30.35,90.38,30.53,8.95,2.69,5.14,25.52,15.68,28.68a153.17,153.17,0,0,1,18-41.49q-2,21.1,12.37,2.88-2.28,5.44,1.9,10.59C1402.76,203.71,1420.9,193.86,1422.22,193.95Zm-26.48-23.25c1.76,1.52,1,2.91,3.57,1.95C1398,168.56,1397.83,169.82,1395.74,170.7Zm-71-26.23c1,7.91,3.67-2,7.57,11,11.17-16.89,9.2-20.64,22.77-22.69C1343.72,120.6,1324.09,145.33,1324.72,144.48Zm-23.58-29.35q-3.28,7.94,9.6-.81-15.84,2.4,14.6-14.83C1317,107,1302.44,111.45,1301.14,115.13ZM1425.82,237.9c-.4.58-2.18-.5-1.58,2.1C1426.35,239.77,1425.71,238.06,1425.82,237.9Zm3.16-1.55c-.41-1.88,1.86-3.19-1.8-4.34C1425.69,234.92,1428.51,234.15,1429,236.35Zm51.94-51.6Zm-49.51,32.59a8,8,0,0,0,1.69,2.79C1433.37,218.28,1432.2,218.59,1431.42,217.34ZM1573.31,319c-9.63-48.32-15.78-20.89-37.36-44.71,2.13,2.35-13.1,19.88-15.6,19.09-12.36-3.91,13-64.89,7.1-69.09-9.74-17.4-48-31.49-66.75-26.18q-6.26,11.28,5.26,16.51c-20.14,12.92-7.62,17.29-18.94,34.35q1.47-22.7-2.09-.81a22.76,22.76,0,0,1-.15-20.6c-70.14,36.92,29,130.08-27,171.62C1496.27,389.94,1563.41,383.33,1573.31,319ZM1444.25,199.43c-.15-.75-1.19-1.39-2.47-1.76C1441.84,199.31,1442.76,200,1444.25,199.43Zm32.59-5.66C1477,195.38,1483.59,193.26,1476.84,193.76Zm-36.12,9c-2.92,10.24,4.41,5.66,2.46-1.69C1440,199.87,1441.83,201.93,1440.72,202.81Z"/><path id="ME" class="cls-1" d="M2052.66,154.66a9.59,9.59,0,0,1-4.56-.15C2051.59,158.81,2051,156.14,2052.66,154.66Zm3.57-6c-1.77-6.25-4.76,2,0,0Zm11.11-14.31c-12.25-2.56,1,17.1-1.21,5.18C2072.06,138.91,2070,137.63,2067.34,134.32ZM2105.63,102c-2.52-1.92-7.41-1.48-5.81,1.95-13.89-18.79-53.31-96.66-74.17-101-70.72-14.74-36.33,119.82-66.93,116.38-11.95,6.71,36.21,100.93,37.38,102.37q-1-3.59,2.57-.81c3.07-8.74,7.27-36.75,14.46-43.84.6,5.21,3-6.49.11,6.14q3.33-12.22,1.43.33c5-11.93,11.72,1,2.5-13.42-1-2.88-4.15-4,5.81,9.41a15.2,15.2,0,0,1,1.15-13.72c-.16.8,1.06,26.36,2.9-.55,1.25,17.13,2.31,3.55,5.85-3.64,2.39,12.31,6.57-4.85,4.93,5.15,4.31-5.75,9.92-27.71,7.83-33.87,2.91,8.23,6.93,1.9,2.61,11.58,8.15-2.05,15.38-4.43,9.6-11.77,4.54,5.75,8.35-4.06,9.27-4.31,3,1.63,3.78.83,7.65,7.62,4.7-10-1-7.4,4.56-4.82C2076.8,119,2098.91,114.07,2105.63,102Z"/><path id="MD" class="cls-1" d="M1859.39,509.16Zm-1.84-7.43c-1.05.44-2.58-1.62-2,1.36C1858.36,503.61,1857.26,501.85,1857.55,501.73Zm33.54-12a103.36,103.36,0,0,1-2.57,12.87C1890.52,498.65,1891.1,489.74,1891.09,489.7Zm1.06-7.57c-1.92-3-.6,2.78-.33,4.56A7.4,7.4,0,0,0,1892.16,482.12Zm-2.17,9.82c2.93-8.32-5.64-6,.37-10.81-39.77,9.06-23.62-39.87-60.48-50.46-33.7-9.68-121.58,16.09-115.07,49.21,21.8-19.43,35.18-32.7,59.24-27.66,37.89,7.94,23.37,32.08,34.24,48.5-5-7.58,26.28,6.14,16.61,3.69-4.36-9,21,5.2,22.77,6.58A95.37,95.37,0,0,1,1827,483.78q3.64,11,14.56,11.81c2.16-8.24-15.29-32.76-14.12-31.74,11,4.74,2.89-5.82-4.19-8.39,7.17.7,11.37-4.82,7.06-8.2q3.76-.76,5.26,3c0-3.35,1.16-12.36,10.15-17q-3.48,14.27,4.08.11c2.68,8.52-11,12,2,10.27q-18.33,2.64-10.74,19.2-.55-6,4.56-6.51a22.34,22.34,0,0,0-8.13,16.11c2-6.93,6.2-5.23,6.81-4.78.7,3.73,1.89,5,3,4.85q-8.37-.85-7.28,8.24c.57-5,9.07-4.07,15-1.69-4,11.33-21.07,2.29-6.21,18.28-.11-.63,11.15,1.2,13.13-7.32-2.06,10.74,5,2.75-.4,14.2,11.83-9.83-3.63,4.11,7.36-.92q-7.23,4.38-3.86,7.43,2.35-2.7,1.36,2.17C1867.21,512.29,1889.75,492,1890,491.94Z"/><path id="MA" class="cls-1" d="M2046.82,297.56C2041.11,288.21,2038.08,311.39,2046.82,297.56Zm-18.61-.51Zm-3.83,1c-1.4-5.09-7,2.27-9.86,5.11Q2032.62,303.9,2024.39,298Zm18.17-12c.06-2.11.86-3.64-.26-5A26.47,26.47,0,0,0,2042.55,286Zm.73-6.29c-5.25-10.36-3.72-9.15-13.9-14.53,6.25.93,4.06,7,8.94,3.42,6,14.32-28.34,13.08-25.85-.15q.27,3.82,2.72,1.65-8.73-17.47-17.88-9.09c-6.4-6.65,11.57-18.46,8.28-22.39-3.21,7.31-9-2-9.38-6.62-19.3,4.85-35.69,17.79-57.67,22.51h0l0,0c-53.26,3.76-23.86,29.07-6.17,37.66,29,14.09,47.47-20.33,68.15,9.53q3.47-10,3.61-3.42c5.55,1,14.28-30.78,13.86-4.42C2028.84,289.77,2038.62,280.33,2043.29,279.72Z"/><path id="LA" class="cls-1" d="M1279.15,1015.58c-4.63-2.62-9.85-3.21-13,1.11C1271.86,1020.52,1278.95,1022.18,1279.15,1015.58Zm36,23.18Zm.11,0a4.1,4.1,0,0,0,2.8.26A9.79,9.79,0,0,0,1315.22,1038.76Zm4.82.11Zm7.72-1.47Zm10.23-.29c-1.39-.19-2.67-.82-4.16-.85C1334.88,1036.92,1337.77,1037.07,1338,1037.1Zm59.62-34.54.18-.22C1397.55,1002.58,1396.71,1003.37,1397.61,1002.57Zm-13.06-13.17Zm4.71,22.21c1.83-2.69-.34-.84-1.69.33A3.12,3.12,0,0,0,1389.26,1011.61Zm-53.33,16.4c.45-1.94.14-.51-.18.92A1.54,1.54,0,0,1,1335.93,1028Zm57.3-19.57c2-3,.92-1.59-.59.48A1.68,1.68,0,0,0,1393.24,1008.45Zm-13.13-24.57C1388.46,983,1388.22,972.6,1380.11,983.88Zm1.73,5.63Zm1.73,5.81Zm-61.86,43.4Zm74.66-13c.37-.16-27.47-13.45-32.51-19.68q10.79,1.73,2-4c12.38,4.6,7.06-4.24,15.08-9.89-3.93-.66-6.91-3.35-2.28-8.17-4.67-1.4-12.39,10.72-14.2,6q-3.16-5,2.1-9.38c-.64.14-4.28.45-2-.48,1.22-.77-33,16.52-31.07-2.52,1.9-18.55,30.78,5.27,37.66,0q-18.44-15.49-12.65-39-40.65,3.8-81.36,6.88c15.68-22,30.86-81.07,5.44-100.77-13.64-10.57-102.77.71-113.09,18.82-8.22,14.43,36.18,150.33,29.08,148.15,15.6,4.84,52.28,13.59,67.9,2.72-4.84-1.83-2.88-2.75-8.13-6.22,9.39,4.2,59.46,4.29,47,22-1.84-8.32-1.69-4.53-8.39-3.75,16.77,30.82,46.27-24,48.29,8.28,20.19-7.94-2.22-19.94.55-24.28,17.61,12.41,43,7.4,36,29C1391.47,1028.75,1396.93,1033.4,1396.36,1025.74ZM1377,997.93c-1.39.33-3.12-3.13-2.17,2C1376.17,999.08,1377.2,997.88,1377,997.93Zm22.29,2.24C1404.74,990.29,1398.06,1002.52,1399.27,1000.18Zm-39.06,21.37c-1,.12-1.69.39.07,1.22A1.69,1.69,0,0,0,1360.21,1021.54Zm42.19-36.64C1394.62,975,1408.58,1005.76,1402.4,984.91ZM1341,1033.2c-.53.32-1.59.79-2.5,1.33C1339.69,1034.53,1340.4,1033.57,1341,1033.2Zm16-8.5c-1.29,1.23-2.36,1.25-3,3C1355.39,1027,1356.36,1025.29,1357,1024.71Zm1.11-.92Zm-14.9,11.36a3.42,3.42,0,0,0-2.17,1.58C1342.2,1036.35,1344,1035.88,1343.18,1035.15Zm8.28-20C1353,1016.26,1350.41,1010.94,1351.45,1015.18Zm49.32-24,.29.74A1.87,1.87,0,0,0,1400.78,991.16Zm-1.62-.29Zm.62-.77Zm.4-.22q-.45-.37,0,.73A3.72,3.72,0,0,0,1400.19,989.88Zm-26.7,12.39Zm22.87-7.8c-.06-1.38.54.62,0,0Zm-11.37-7Z"/><path id="KY" class="cls-1" d="M1632.56,577.2c-13.51,1.17-44.77-40.44-57.56-47.09,2.13,1.11-63.79-14.61-59.13-14.58-13.9-.09-31.28,67.48-59.81,55.19,0-.12-2.89,13.92-7.94,17.51-23.48-23.7-102.95,51.8-102.43,78.3,74.94-7.22,248-5.84,286.88-89.34ZM1340.9,663.6c.11,2-3.49,3.72,2,3.09C1343.22,664.79,1340.93,664.14,1340.9,663.6Z"/><path id="KA" class="cls-1" d="M1137.21,656.83c-57.87,2.86-115.81,2.63-173.72,3.9-21.4.47-101.88,17.75-119.43,1.22-12.61-11.88-.12-73.56.28-88.84,1.11-41.45-9.68-43.1,26.27-59.48,27.63-12.59,211.58-17.41,238,.63,31.72,21.66,26.78,104.74,28.59,142.58q-18.92,4.82-35.27-3.38C1101.59,646.13,1136.52,642.45,1137.21,656.83Z"/><path id="IN" class="cls-1" d="M1513.62,529.83c-21-23.86,10.29-114.53-19.85-135.83-22.3-15.76-87.45,25.69-101.2,9.71,4.15,36.06,30.64,167.55-1.1,192.58,13,5.12,45.88-20.72,56.64-8.06,5-3.79,7.94-17.63,7.94-17.51C1468,576.69,1512.12,533.74,1513.62,529.83Z"/><path id="IL" class="cls-1" d="M1407.51,544.13c.31-35.91,1.13-99.92-14.31-133-19-40.75-2.4-31.84-50.42-39.78-20.07-3.32-51.08,6-70.36,6,39.33,33.17,1.24,31.82-8.73,60.1-13,37-9.2,61.35,10.23,94.61,10.35,17.71,22.48,24.67,31.43,36.64,7.64,10.22,25.1,65.72,43.9,72.73-3.39-12.56,21.12-.35,32-8C1385.36,630.47,1409,547.36,1407.51,544.13Z"/><path id="ID" class="cls-1" d="M520.52,275.93c-3.88,40.11-8.08,80.2-12,120.31-52.23-5.55-142.12.57-188.7-22.6-45-22.37-30.18-45.32-18.32-94.6,5.24-21.75,18.55-46.15,22.92-68.51C334.53,158.91,296,32,370.42,42.41c-3.53,23.86-7.68,55.58.7,73.59,3.23,7,41.19,40.17,41.82,42.5,5.17,19.26-7.33,39.53-2.22,56.22-5.54-18.08,45.33,59.84,45.25,59.8,14.59,8.29,79.75-29,62.18,17.76C517.94,292.86,517,273.28,520.52,275.93Z"/><path id="IA" class="cls-1" d="M1272.3,377.3c23.88,38.47,10.29,23.62-8.82,58.74-3.66,6.73-.27,44.76-12.54,46.5-20.45,2.91-155.56,7.53-166.12-.46-8.07-6.11-31.08-96.61-31.16-101.09-.59-30.49-4.57-25.79,12.06-40.94,7-6.36,152.82-15.47,163.27-10.1C1236.77,334,1272.22,373.68,1272.3,377.3Z"/><path id="GA" class="cls-1" d="M1708.88,903.52C1712.51,878.12,1704.2,910.42,1708.88,903.52Zm15-64.77c-22.67-3.55-125.14-117.8-116.41-130.28-33.54,5.68-67.31,10-101,14.42A1274,1274,0,0,0,1550.25,846c-7,96.24,56.21,87.44,130,81,8.86-.77,9.79-17.11,27.39-19.67-2.9-8.7.06-10.84-3.72-18.54,5.8,1.58,8.15-13.06-1.37-13.53,5.57,1.22,11.09-4.54,12-10.67q-4.55,6.52-7,.18c3.19-1.72,3.59-8.07,6.91-1.55,2.4-8.16-2.65-3.7-5.84-9.34,4,1.43,8.87-10.19,15.27-15.19C1704.76,835.75,1721.74,840.43,1723.89,838.75Z"/><path id="FL" class="cls-1" d="M1583.54,971.27a31.1,31.1,0,0,1-2.72,2.39C1583,973,1583.83,970.89,1583.54,971.27Zm-4.35,3.64c-3.93,4.3-9.69,9.31-15.81,8.72C1569.55,984.82,1577.61,977.86,1579.19,974.91Zm-15.59,6.29a9.12,9.12,0,0,0-5.6.07C1560.35,983.35,1562.4,984.06,1563.61,981.2Zm-71.69-27.77-26.59,7.32C1478.43,959.79,1500.58,953.43,1491.92,953.43Zm315.36,188.91Zm-87.64-23.21C1709.18,1115.05,1709.85,1117.65,1719.63,1119.12ZM1806,1122c3-14.12-.08-49.7-18.21-54.44,6.24,2.32-31.09-57.57-36.41-71.24a133.57,133.57,0,0,1,25,42c-22.69-35.74-48.4-102.72-64.62-122.22,6-40.18-37.76,17.54-27.28,12.85-.67.3-63.27-3.08-72.21-3.12-31-.12-52.31-8.08-80.92-7.54-23.73.45-64.7,4.12-83.09,16.82,1.69-1.16,20.17,22.58,7.42,29.43,11.38-3.46,19.5-16.69,19.31-18.65,10.4,6.57,3.58,7.65-5.55,13,1.31-.47,43.22-20.87,45.61-6.47-5.73-2-7.91-2.15-16.88.66,115.71,12.62,9.08,15.53,32.62.29q2.88,7.38,7.09-1.26c.22,16.8,3.94-1.39,6.51,13.36,8.67-1.08-3.17-1.64-9.23-3.42-.16-.11,19.46,17.94,18.56,18.24,9,2.2,36.55-27.68,67.07-18.56,39.93,11.92,40.79,37.52,54.46,65.25,5,10.21,6.06,38.23-.95,30.16,6.41,7.15,17.28-3.45,3.45-5.3q5.63-2.35.37-5.55c5.56.72,9.8,15.57,11.34,4.49-5.08,3.2-.08,19.7-6.67,21.47,1.84.3,3.51,4.8-2.58-1,15.44,13.26,5.92,8.8,21,27.55-.86,2.06,24.41,8.53,3-5.63-6.27-5.89,19.3,22.8,12.87,19.66q8.23-.45,11.11-8.55c-9.63,13.17,29.79,74.26,46.52,67.13-16.36-12.51,26.14-1.47,25.3-2.39,1,1.83,6.66-44.68,8.68-31.71C1807.44,1127.05,1804.71,1118.4,1806,1122Zm-42.6-115.09c-7.05-7.44-2.37,10.62,1.37,15.45A23.07,23.07,0,0,1,1763.43,1006.94Zm1.92,16.37C1766.06,1024.61,1763.84,1020.64,1765.34,1023.31Zm13.83,20q7.32,13.59,15.85,26.41C1742.49,966.29,1786,1056.48,1779.17,1043.36Zm30.45,185.26a.86.86,0,0,0,.34-.51A.82.82,0,0,0,1809.62,1228.62Zm4.12-2.54Zm.67-.22Zm2.5-1.69Zm1.66-.66Zm-144-206.6Zm-1.15-11.48Zm.55,5.63Zm-.62,1Zm.67,1.73Zm-1.15-4.08Zm.77,5.84.18.22Q1673.83,1015.23,1673.68,1015.55Zm-3-9.82Zm.37,2.35Zm-.81-1.77Zm2.53-.73ZM1670,1010ZM1665,994.84Zm-10.15-.37Zm17.1,9.86Zm.51,8.57Zm75.14,195.34Zm-3.12-65Zm-14.24,66.54c-1.92-.21-.26.78.62,1.36A1,1,0,0,0,1730.22,1209.83Zm-.07,2.06c.15.16.4,0,.62-.3A3.83,3.83,0,0,0,1730.14,1211.89Zm-.88.29s-.1.2,0,0Zm21.66-5.92Zm1.48-59.92c-.35-.94,2.31-2.31-2.06-2.1C1750.45,1147,1751.78,1144.66,1752.4,1146.34Zm1-.73Zm-24.57,65.62Zm16.73-68.81Zm2.17,1.8Zm-8.28-1.11c-.44,1-2.37.6-.29,2C1740.9,1144.26,1739.39,1143.23,1739.45,1143.1Zm-43.25,70.7a.18.18,0,0,0,0-.26Zm.22-.26q.16,0,0-.15Zm.26.18Zm-2.76.11Zm-6-134.21c-1.67-1.44-2.8-2.94-4.6-4Q1689.73,1083.8,1687.88,1079.62Zm25.67,29.06c-4.45-.86.3,5.22,2.72,8.57A31.78,31.78,0,0,0,1713.55,1108.68Zm15,103.58Zm-31.56.18c-.05,0-.06,0,0,.11S1697,1212.48,1697,1212.44Zm31.49-.66Zm-19.17-100.27C1703.85,1101.57,1712.31,1115.51,1709.29,1111.51Zm46.23,90.12C1752.92,1199.77,1757.39,1211.58,1755.52,1201.62Zm-48.85-97c-2.47-5.56,4.21,9.25,0,0C1706.47,1104.13,1707.15,1105.63,1706.67,1104.6Zm62.64,62.31Zm6.4,2.57Zm1.06,1.25Zm-4.74-3.82Zm-1.17.84Zm-.18-2Zm-85.26-96.43C1686.5,1069.43,1685.42,1069.29,1685.42,1069.29Zm92.25,99.79ZM1758,1200.81Zm-82.2-179.64c.42,0,.05-.15-.4-.29A.53.53,0,0,1,1675.78,1021.18Zm120.16,147.68Zm-5.77,4.82Zm.84,10.3Zm.59-10.15Zm-2.8-1Zm1.59,13.24Zm3.94-4.41a15.57,15.57,0,0,0-1.37,2.24A2.61,2.61,0,0,0,1794.33,1181.65Zm-2.47-8.13ZM1806.1,1159c-5.8,6.77-6.62,14.78-10.89,22.07C1803.23,1170.75,1806.13,1160.31,1806.1,1159Zm-12.32,11.4Zm-2,4.67Zm-3,4.85Zm1.88-5.66Zm-22.92,25.49Zm-5.92-1.8C1761.09,1196.95,1769.58,1210,1761.89,1197.95Zm-2.36,2.72Zm1.29,1.07Zm3.83-3.06Zm22.18-15.67Zm1,5.33c-4.54,1.47-.41,2.82,0,0C1787.54,1188.42,1787.6,1189.54,1787.78,1188.34Zm-5.15-9.12q.13-.1-.15-.15Zm-5.29,15.74Zm4.82-2.87C1771.39,1200.11,1781.44,1193.15,1782.15,1192.1Zm5.44-13.83Zm21-27c-.29,1.16-1,3.76-1.25,4.89A5.73,5.73,0,0,0,1808.59,1151.27Zm-9.41,21-.26-.66C1798.42,1172.59,1797.94,1173.57,1799.18,1172.31Z"/><path id="DE" class="cls-1" d="M1862.88,418.93c-12.87,25.19,26.71,33.22,25.9,53.22,0,.26,2.19.9,3.08,8.61-34,7-24.25-9.24-36.19-33-13.81-27.47,8.89-20.63-.87-24.78Q1845.26,412.7,1862.88,418.93Z"/><path id="DC" class="cls-1" d="M1812.75,480.47C1813.48,463.89,1811.91,481.47,1812.75,480.47Z"/><path id="CT" class="cls-1" d="M1971.35,282.14c9.18,34.7,1,23.44-12.56,37.56-1.78,1.85-45.62,24.79-47.1,23,42.55-27.82-36.75-52,59.66-60.58C1973.68,290.95,1959.69,283.18,1971.35,282.14Z"/><path id="CO" class="cls-1" d="M845.25,513.86q-1.19,73.73-2.24,147.45c-93.28-1.87-186.56-6-279.53-14,3.78-43.89-4-116.35,13-156.56q-15-59.65,41.11-36.25,28.53,2.1,57.09,3.73c39.74,2.37,95.89-5.92,133.36,5.88,51.12,16.09,37.91,9.72,37,67C844.94,533.31,845.36,506.9,845.25,513.86Z"/><path id="CA" class="cls-1" d="M159.93,802.85q-9.64-18.87-4-1.3C166.79,821.31,158,796.88,159.93,802.85Zm-40-27c-1.62-.19-2.16-1.52-3.94-1.55C119.69,780.52,118.84,776.71,119.91,775.89Zm46.31.85q-15.09-9.89-4.43,2C173.45,793.9,164.7,774,166.22,776.74Zm-62.71-40.65c-1.57-1.73-4.37-2.81-8.94-2.39C96.48,740.77,105.41,742,103.51,736.09Zm-11.07-4.38c-2.46-.88-2.15-3.26-5.19-.33A18.51,18.51,0,0,0,92.44,731.71ZM123,736.64c-5.43,1.41-9.75-3-15-3.05C109.54,739.28,123.44,743.23,123,736.64Zm222.67,21.18c-35.33-54.61-69.89-105.09-110.3-156.37-30.41-38.59-80-76.37-85.48-125.48-3.19-28.73,40.93-96.85,24.43-122.88-15.77-24.86-131.11-30.15-154.12-35.35-3,16.23-10.82,57.59-7,56C-21,398.08,21,485,32,517c-7.2-17.42-2.43-3.19-8.24,2.42.17-.19,41.2,10.44,52.74,2.87q-11.84,8.12,8,9.16c-3.35-6.38-31.07-11.58-37.85-5.55.59,1.34,10.24,26.85,10.3,26.92a28.59,28.59,0,0,1-13.24-19c-18,15.16,35,127.44,41.15,138.43,20.85,37.24,7.65,27.94,50.18,57.17,30.33,20.84,70.75,49.59,71.45,91.28,4-1.23,9.28,4.94,1.18-.91q7.44,4.87,1,5.45c33.52,22.63,96.82,1.34,108.81-10C313.39,819,349,752.31,345.63,757.83ZM21.41,533.43ZM45,529.83a.48.48,0,0,0,.44.29Zm1.77,2.35c.19,1.09.39,1.84.44.15Zm82.65,208Zm10.41,27.92Z"/><path id="AZ" class="cls-1" d="M559.91,690.89c-6.19,78.63-19.35,156.83-19.35,235.88v.18c-61.73-3.55-190.95-27.89-232-82.76-6.46-8.63,24-62.07,25.47-72.27,5.29-35.64-.29-78,12.27-103.42,19.92-40.28,41.69-38,95.1-33,86.07,8.12,123.54-8.32,115.91,88.15Q558.63,707.28,559.91,690.89Z"/><path id="AR" class="cls-1" d="M1336,692.17c3.38,5.49-15.91,47.26-21.71,60.42-7.21,16.35-20.4,74.53-23.58,78.39-19.68,23.93-95.2,30.62-122.16,9.31-33.09-26.16-21.93-114.12-30.21-158.82,36.6-1.84,190.32-37,171.43,13.72C1433.62,683.18,1314.49,694.73,1336,692.17Z"/><path id="AL" class="cls-1" d="M1431.08,967.37a52.42,52.42,0,0,1-8.39,2.83C1426.55,970.21,1434.29,970.52,1431.08,967.37Zm127.22-53.11c-28.45-36.5-12-115.58-40.87-158-32.89-48.33-49.76-28-114.85-22.24,18.26,16.23,4.16,107.54,5.23,130,.88,18.47,18.36,147.37,24.19,80.27,10.93,7.84,14,20.13,2.72,25.3,42.31-8.58-.09-26.62,20.35-40.81C1481.58,910.36,1543.06,929,1558.3,914.26Z"/></g></g></svg>