<svg xmlns="http://www.w3.org/2000/svg" viewBox="0 0 463.88 533.59"><defs><style>.cls-1{fill:#001f5b;}</style></defs><title>nyc-bg-2</title><g id="Layer_2" data-name="Layer 2"><g id="Layer_2-2" data-name="Layer 2"><polyline class="cls-1" points="97.52 0 364.31 266.8 97.52 533.59"/><path class="cls-1" d="M336.91,381.78a3,3,0,0,1-2.12-5.12,3.09,3.09,0,0,1,4.24,0,3,3,0,0,1-2.12,5.12Z"/><path class="cls-1" d="M426.89,378.78a3,3,0,0,1,3-3h0a3,3,0,0,1,3,3h0a3,3,0,0,1-3,3h0A3,3,0,0,1,426.89,378.78Zm-31,0a3,3,0,0,1,3-3h0a3,3,0,0,1,3,3h0a3,3,0,0,1-3,3h0A3,3,0,0,1,395.89,378.78Zm-31,0a3,3,0,0,1,3-3h0a3,3,0,0,1,3,3h0a3,3,0,0,1-3,3h0A3,3,0,0,1,364.9,378.78Z"/><path class="cls-1" d="M460.88,381.78a3,3,0,0,1-2.13-5.12,3.29,3.29,0,0,1,.46-.38,2.57,2.57,0,0,1,.52-.27,2.25,2.25,0,0,1,.56-.17,3,3,0,1,1,.59,5.94Z"/><path class="cls-1" d="M336.91,407.89a3,3,0,0,1-.59-.06,3.65,3.65,0,0,1-.56-.17,3.18,3.18,0,0,1-.51-.28,2.78,2.78,0,0,1-.46-.37,3,3,0,0,1,0-4.24,2.84,2.84,0,0,1,.46-.38,3.1,3.1,0,0,1,.51-.27,2.78,2.78,0,0,1,.56-.17,3,3,0,1,1,.59,5.94Z"/><path class="cls-1" d="M426.88,404.89a3,3,0,0,1,3-3h0a3,3,0,0,1,3,3h0a3,3,0,0,1-3,3h0A3,3,0,0,1,426.88,404.89Zm-31,0a3,3,0,0,1,3-3h0a3,3,0,0,1,3,3h0a3,3,0,0,1-3,3h0A3,3,0,0,1,395.89,404.89Zm-31,0a3,3,0,0,1,3-3h0a3,3,0,0,1,3,3h0a3,3,0,0,1-3,3h0A3,3,0,0,1,364.9,404.89Z"/><path class="cls-1" d="M460.88,407.89a3,3,0,0,1-3-3,3.87,3.87,0,0,1,.05-.59,2.81,2.81,0,0,1,.18-.56,2.88,2.88,0,0,1,.27-.52,3.3,3.3,0,0,1,.37-.45,3.11,3.11,0,0,1,4.25,0,2.71,2.71,0,0,1,.37.45,3.74,3.74,0,0,1,.28.52,3.6,3.6,0,0,1,.17.56,3.87,3.87,0,0,1,.05.59,3,3,0,0,1-3,3Z"/><path class="cls-1" d="M336.91,434a3,3,0,0,1-2.12-.88,2.76,2.76,0,0,1-.37-.46,3.18,3.18,0,0,1-.28-.51,3.66,3.66,0,0,1-.17-.57,2.85,2.85,0,0,1-.06-.58,3,3,0,0,1,.06-.59,3.54,3.54,0,0,1,.17-.56,3.77,3.77,0,0,1,.28-.52,3.14,3.14,0,0,1,.37-.45,2.34,2.34,0,0,1,.46-.37,2.57,2.57,0,0,1,.51-.28,2.81,2.81,0,0,1,.56-.17,3,3,0,0,1,2.71.82,2.6,2.6,0,0,1,.37.45,3,3,0,0,1,.28.52,2.81,2.81,0,0,1,.17.56,3,3,0,0,1,.06.59,2.85,2.85,0,0,1-.06.58,2.91,2.91,0,0,1-.17.57,2.57,2.57,0,0,1-.28.51,2.34,2.34,0,0,1-.37.46A3,3,0,0,1,336.91,434Z"/><path class="cls-1" d="M426.88,431a3,3,0,0,1,3-3h0a3,3,0,0,1,3,3h0a3,3,0,0,1-3,3h0A3,3,0,0,1,426.88,431Zm-31,0a3,3,0,0,1,3-3h0a3,3,0,0,1,3,3h0a3,3,0,0,1-3,3h0A3,3,0,0,1,395.89,431Zm-31,0a3,3,0,0,1,3-3h0a3,3,0,0,1,3,3h0a3,3,0,0,1-3,3h0A3,3,0,0,1,364.9,431Z"/><path class="cls-1" d="M460.88,434a3,3,0,0,1-2.13-.88,3.4,3.4,0,0,1-.37-.46,3.18,3.18,0,0,1-.28-.51,3.72,3.72,0,0,1-.17-.57,2.85,2.85,0,0,1-.06-.58,3,3,0,0,1,.06-.59,3.6,3.6,0,0,1,.17-.56,3.77,3.77,0,0,1,.28-.52,4,4,0,0,1,.37-.45,3,3,0,0,1,2.71-.82,2.81,2.81,0,0,1,.56.17,2.63,2.63,0,0,1,.52.28,2.66,2.66,0,0,1,.46.37,4.07,4.07,0,0,1,.37.45,3.77,3.77,0,0,1,.28.52,3.6,3.6,0,0,1,.17.56,2.94,2.94,0,0,1,.05.59,2.84,2.84,0,0,1-.05.58,3.72,3.72,0,0,1-.17.57,3.18,3.18,0,0,1-.28.51,3.43,3.43,0,0,1-.37.46,3.22,3.22,0,0,1-.46.37,3.26,3.26,0,0,1-.52.28,3.54,3.54,0,0,1-.56.17A2.85,2.85,0,0,1,460.88,434Z"/><path class="cls-1" d="M336.91,460.11a2.85,2.85,0,0,1-.58-.06,2.91,2.91,0,0,1-.57-.17,2.57,2.57,0,0,1-.51-.28,2.34,2.34,0,0,1-.46-.37,3.14,3.14,0,0,1-.37-.45,3.77,3.77,0,0,1-.28-.52,3.54,3.54,0,0,1-.17-.56,3,3,0,0,1-.06-.59,3,3,0,0,1,.88-2.12,3.09,3.09,0,0,1,4.24,0,3,3,0,0,1,.88,2.12,3,3,0,0,1-.06.59,2.81,2.81,0,0,1-.17.56,3,3,0,0,1-.28.52,2.6,2.6,0,0,1-.37.45A3,3,0,0,1,336.91,460.11Z"/><path class="cls-1" d="M426.88,457.11a3,3,0,0,1,3-3h0a3,3,0,0,1,3,3h0a3,3,0,0,1-3,3h0A3,3,0,0,1,426.88,457.11Zm-31,0a3,3,0,0,1,3-3h0a3,3,0,0,1,3,3h0a3,3,0,0,1-3,3h0A3,3,0,0,1,395.89,457.11Zm-31,0a3,3,0,0,1,3-3h0a3,3,0,0,1,3,3h0a3,3,0,0,1-3,3h0A3,3,0,0,1,364.9,457.11Z"/><path class="cls-1" d="M460.88,460.11a2.88,2.88,0,0,1-.59-.06,2.81,2.81,0,0,1-.56-.17,2.63,2.63,0,0,1-.52-.28,2.66,2.66,0,0,1-.46-.37,4,4,0,0,1-.37-.45,2.9,2.9,0,0,1-.27-.52,2.81,2.81,0,0,1-.18-.56,3.88,3.88,0,0,1-.05-.59,3,3,0,0,1,.87-2.12,3.22,3.22,0,0,1,.46-.37,3.26,3.26,0,0,1,.52-.28,3.54,3.54,0,0,1,.56-.17,3,3,0,0,1,3.58,2.94,3.88,3.88,0,0,1-.05.59,2.81,2.81,0,0,1-.18.56,2.9,2.9,0,0,1-.27.52,4.07,4.07,0,0,1-.37.45A3,3,0,0,1,460.88,460.11Z"/><path class="cls-1" d="M3,114.63a3,3,0,0,1-2.12-5.12,3.09,3.09,0,0,1,4.24,0A3,3,0,0,1,3,114.63Z"/><path class="cls-1" d="M93,111.63a3,3,0,0,1,3-3h0a3,3,0,0,1,3,3h0a3,3,0,0,1-3,3h0A3,3,0,0,1,93,111.63Zm-31,0a3,3,0,0,1,3-3h0a3,3,0,0,1,3,3h0a3,3,0,0,1-3,3h0A3,3,0,0,1,62,111.63Zm-31,0a3,3,0,0,1,3-3h0a3,3,0,0,1,3,3h0a3,3,0,0,1-3,3h0A3,3,0,0,1,31,111.63Z"/><path class="cls-1" d="M127,114.63a3,3,0,0,1-2.13-5.12,3.29,3.29,0,0,1,.46-.38,2.57,2.57,0,0,1,.52-.27,2.25,2.25,0,0,1,.56-.17,3,3,0,1,1,.59,5.94Z"/><path class="cls-1" d="M3,140.74a3,3,0,0,1-.59-.06,3.65,3.65,0,0,1-.56-.17,3.18,3.18,0,0,1-.51-.28,2.78,2.78,0,0,1-.46-.37,3,3,0,0,1,0-4.24,2.84,2.84,0,0,1,.46-.38,3.1,3.1,0,0,1,.51-.27,2.78,2.78,0,0,1,.56-.17A3,3,0,1,1,3,140.74Z"/><path class="cls-1" d="M93,137.74a3,3,0,0,1,3-3h0a3,3,0,0,1,3,3h0a3,3,0,0,1-3,3h0A3,3,0,0,1,93,137.74Zm-31,0a3,3,0,0,1,3-3h0a3,3,0,0,1,3,3h0a3,3,0,0,1-3,3h0A3,3,0,0,1,62,137.74Zm-31,0a3,3,0,0,1,3-3h0a3,3,0,0,1,3,3h0a3,3,0,0,1-3,3h0A3,3,0,0,1,31,137.74Z"/><path class="cls-1" d="M127,140.74a3,3,0,0,1-3-3,3.87,3.87,0,0,1,.05-.59,2.81,2.81,0,0,1,.18-.56,2.88,2.88,0,0,1,.27-.52,3.3,3.3,0,0,1,.37-.45,3.11,3.11,0,0,1,4.25,0,2.71,2.71,0,0,1,.37.45,3.74,3.74,0,0,1,.28.52,3.6,3.6,0,0,1,.17.56,3.87,3.87,0,0,1,.05.59,3,3,0,0,1-3,3Z"/><path class="cls-1" d="M3,166.85A3,3,0,0,1,.88,166a2.76,2.76,0,0,1-.37-.46A3.18,3.18,0,0,1,.23,165a3.66,3.66,0,0,1-.17-.57,2.85,2.85,0,0,1-.06-.58,3,3,0,0,1,.06-.59,3.54,3.54,0,0,1,.17-.56,3.77,3.77,0,0,1,.28-.52,3.14,3.14,0,0,1,.37-.45,2.34,2.34,0,0,1,.46-.37,2.57,2.57,0,0,1,.51-.28,2.81,2.81,0,0,1,.56-.17,3,3,0,0,1,2.71.82,2.6,2.6,0,0,1,.37.45,3,3,0,0,1,.28.52,2.81,2.81,0,0,1,.17.56,3,3,0,0,1,.06.59,2.85,2.85,0,0,1-.06.58,2.91,2.91,0,0,1-.17.57,2.57,2.57,0,0,1-.28.51,2.34,2.34,0,0,1-.37.46A3,3,0,0,1,3,166.85Z"/><path class="cls-1" d="M93,163.85a3,3,0,0,1,3-3h0a3,3,0,0,1,3,3h0a3,3,0,0,1-3,3h0A3,3,0,0,1,93,163.85Zm-31,0a3,3,0,0,1,3-3h0a3,3,0,0,1,3,3h0a3,3,0,0,1-3,3h0A3,3,0,0,1,62,163.85Zm-31,0a3,3,0,0,1,3-3h0a3,3,0,0,1,3,3h0a3,3,0,0,1-3,3h0A3,3,0,0,1,31,163.85Z"/><path class="cls-1" d="M127,166.85a3,3,0,0,1-2.13-.88,3.4,3.4,0,0,1-.37-.46,3.18,3.18,0,0,1-.28-.51,3.72,3.72,0,0,1-.17-.57,2.85,2.85,0,0,1-.06-.58,3,3,0,0,1,.06-.59,3.6,3.6,0,0,1,.17-.56,3.77,3.77,0,0,1,.28-.52,4,4,0,0,1,.37-.45,3,3,0,0,1,2.71-.82,2.81,2.81,0,0,1,.56.17,2.63,2.63,0,0,1,.52.28,2.66,2.66,0,0,1,.46.37,4.07,4.07,0,0,1,.37.45,3.77,3.77,0,0,1,.28.52,3.6,3.6,0,0,1,.17.56,2.94,2.94,0,0,1,.05.59,2.84,2.84,0,0,1-.05.58,3.72,3.72,0,0,1-.17.57,3.18,3.18,0,0,1-.28.51,3.43,3.43,0,0,1-.37.46,3.22,3.22,0,0,1-.46.37,3.26,3.26,0,0,1-.52.28,3.54,3.54,0,0,1-.56.17A2.85,2.85,0,0,1,127,166.85Z"/><path class="cls-1" d="M3,193a2.85,2.85,0,0,1-.58-.06,2.91,2.91,0,0,1-.57-.17,2.57,2.57,0,0,1-.51-.28,2.34,2.34,0,0,1-.46-.37,3.14,3.14,0,0,1-.37-.45,3.77,3.77,0,0,1-.28-.52,3.54,3.54,0,0,1-.17-.56A3,3,0,0,1,0,190a3,3,0,0,1,.88-2.12,3.09,3.09,0,0,1,4.24,0A3,3,0,0,1,6,190a3,3,0,0,1-.06.59,2.81,2.81,0,0,1-.17.56,3,3,0,0,1-.28.52,2.6,2.6,0,0,1-.37.45A3,3,0,0,1,3,193Z"/><path class="cls-1" d="M93,190a3,3,0,0,1,3-3h0a3,3,0,0,1,3,3h0a3,3,0,0,1-3,3h0A3,3,0,0,1,93,190Zm-31,0a3,3,0,0,1,3-3h0a3,3,0,0,1,3,3h0a3,3,0,0,1-3,3h0A3,3,0,0,1,62,190Zm-31,0a3,3,0,0,1,3-3h0a3,3,0,0,1,3,3h0a3,3,0,0,1-3,3h0A3,3,0,0,1,31,190Z"/><path class="cls-1" d="M127,193a2.88,2.88,0,0,1-.59-.06,2.81,2.81,0,0,1-.56-.17,2.63,2.63,0,0,1-.52-.28,2.66,2.66,0,0,1-.46-.37,4,4,0,0,1-.37-.45,2.9,2.9,0,0,1-.27-.52,2.81,2.81,0,0,1-.18-.56A3.88,3.88,0,0,1,124,190a3,3,0,0,1,.87-2.12,3.22,3.22,0,0,1,.46-.37,3.26,3.26,0,0,1,.52-.28,3.54,3.54,0,0,1,.56-.17A3,3,0,0,1,130,190a3.88,3.88,0,0,1-.05.59,2.81,2.81,0,0,1-.18.56,2.9,2.9,0,0,1-.27.52,4.07,4.07,0,0,1-.37.45A3,3,0,0,1,127,193Z"/></g></g></svg>