<svg xmlns="http://www.w3.org/2000/svg" viewBox="0 0 352.93 451.18"><defs><style>.cls-1{fill:#fff;}.cls-2{fill:#00b0df;}</style></defs><title>nyc-bg-1</title><g id="Layer_2" data-name="Layer 2"><g id="Layer_2-2" data-name="Layer 2"><path class="cls-1" d="M202.19,0l2.87,2.87L191,17l-2.87-2.87ZM164.57,37.62l2.87,2.87L153.35,54.57l-2.87-2.87ZM126.95,75.24l2.87,2.87L115.73,92.19l-2.87-2.87ZM89.33,112.86l2.87,2.87L78.11,129.81l-2.87-2.87ZM51.71,150.48l2.87,2.87L40.49,167.44l-2.87-2.87ZM14.09,188.11,17,191,2.87,205.06,0,202.19Z"/><path class="cls-1" d="M239.36,295.56A100.83,100.83,0,1,1,340.19,194.73,100.95,100.95,0,0,1,239.36,295.56Zm0-200.67a99.83,99.83,0,1,0,99.83,99.83A99.95,99.95,0,0,0,239.36,94.89Z"/><polyline class="cls-2" points="55.31 45.75 258.03 248.47 55.31 451.18"/><rect class="cls-1" x="347.93" y="404.19" width="5" height="2"/><path class="cls-1" d="M340.06,406.19h-7.92v-2h7.92Zm-15.78,0h-7.92v-2h7.92Zm-15.78,0h-7.92v-2h7.92Zm-15.78,0h-7.92v-2h7.92Zm-15.78,0H269v-2h7.92Zm-15.78,0h-7.92v-2h7.92Zm-15.78,0h-7.92v-2h7.92Zm-15.78,0h-7.92v-2h7.92Zm-15.78,0h-7.92v-2h7.92Zm-15.78,0h-7.92v-2H198Zm-15.78,0H174.3v-2h7.92Zm-15.78,0h-7.92v-2h7.92Zm-15.78,0h-7.92v-2h7.92Zm-15.78,0h-7.92v-2h7.92Zm-15.78,0h-7.92v-2h7.92Zm-15.78,0H95.38v-2h7.92Zm-15.78,0H79.6v-2h7.92Zm-15.78,0H63.81v-2h7.92Zm-15.78,0H48v-2h7.92Zm-15.78,0H32.24v-2h7.92Zm-15.78,0H16.46v-2h7.92Z"/><rect class="cls-1" x="3.59" y="404.19" width="5" height="2"/></g></g></svg>